<?xml version="1.0" encoding="utf-8"?>
<!-- Generator: Adobe Illustrator 19.2.1, SVG Export Plug-In . SVG Version: 6.00 Build 0)  -->
<svg version="1.1" id="layer" xmlns="http://www.w3.org/2000/svg" xmlns:xlink="http://www.w3.org/1999/xlink" x="0px" y="0px"
	 viewBox="0 0 652 652" style="enable-background:new 0 0 652 652;" xml:space="preserve">
<style type="text/css">
	.st0{fill:#FFD700;stroke:#FFFFFF;stroke-width:4.7316;stroke-miterlimit:10;}
	.st1{fill:#FFFFFF;stroke:#000000;stroke-width:2.3676;}
</style>
<polyline points="202.4,335.1 202.4,356.6 228.5,356.6 228.5,374.9 181.1,374.9 181.1,280 227.2,280 227.2,298.3 202.4,298.3 
	202.4,316.8 224.2,316.8 224.2,335.1 202.4,335.1 "/>
<g>
	<path d="M279,324.3c6.7,1.4,11.8,7.4,11.8,14.5v26.9c0,4.7,0.8,8.4,2,9.3h-20.9c-1.1-0.9-2-4.6-2-9.3v-26c0-3.7-3-6.7-6.7-6.7h-7.8
		v-16.1h8.5c2.3,0,4.4-1.4,5.3-3.4c0.8-1.8,1.2-4.4,1.2-7.3c0-2.5-0.3-4.9-0.9-6.6c-0.8-2.1-3-3.6-5.3-3.6H258v78.9h-21.1v-95h35.4
		c8.7,0,16.8,6.5,18.2,14.7c0.4,2.5,0.6,5.3,0.6,8.1c0,3-0.3,5.9-0.7,8.5C289.3,317.5,284.9,322.4,279,324.3"/>
	<path d="M331.3,337.7c13.7,0,21-6.8,22.6-17c0.7-4.4,0.9-7.8,0.9-12c0-5.9-0.2-9.6-1.2-14c-1.9-8.2-9.6-14.7-18.2-14.7h-35.2v95
		h21.1v-77.7h5.3c4.1,0,6.1,2.4,6.7,5.6c0.3,1.8,0.3,3.9,0.3,5.9c0,2.2,0,4.7-0.4,6.5c-0.6,3.1-3.4,5.5-6.7,5.5h-7.9v16.9
		L331.3,337.7L331.3,337.7z"/>
	<rect x="360.7" y="280" width="21.1" height="95"/>
	<polygon points="414.2,357.2 435.7,357.2 435.7,375 393.1,375 393.1,280 414.2,280 	"/>
	<path d="M596.6,324.3c6.7,1.4,11.8,7.4,11.8,14.5v26.9c0,4.7,0.8,8.4,2,9.3h-20.9c-1.1-0.9-2-4.6-2-9.3v-26c0-3.7-3-6.7-6.7-6.7
		H573v-16h8.5c2.3,0,4.4-1.4,5.3-3.4c0.8-1.8,1.2-4.4,1.2-7.3c0-2.5-0.3-4.9-0.9-6.6c-0.8-2.1-3-3.6-5.3-3.6h-6.1V375h-21.1v-95H590
		c8.7,0,16.8,6.5,18.2,14.7c0.4,2.5,0.6,5.3,0.6,8.1c0,3-0.3,5.9-0.7,8.5C607,317.5,602.5,322.5,596.6,324.3"/>
	<polygon points="526.8,375 549,375 531.9,280 503.9,280 486.5,375 507.6,375 518,296.1 523,341.9 509.6,341.9 506.9,358.9 
		524.8,358.9 	"/>
	<polygon points="462,357.2 482.8,357.2 482.8,375 441,375 441,280 462,280 	"/>
	<polygon points="48.4,374.9 100.7,334 148.6,374.9 	"/>
	<polygon class="st0" points="48.4,374.9 100.7,334 148.6,374.9 	"/>
	<path d="M39,358.3c-1.9-0.6-3.4-2.5-3.4-4.1v-55.8c0.4-2.2,1.4-3.5,3.4-4.1v-0.1c0.4-0.1,0.9-0.1,1.4-0.1c0.4,0,0.9,0,1.3,0.1
		c2.2,0.3,3.9,2,3.9,4.2v20.1h20.1v-21c-0.6-9.3-6.4-16.1-15.4-18.5c-3.1-0.8-6.1-1.1-9.8-1.1c-3.5,0-6.5,0.3-10,1.1
		c-8.3,1.8-15.1,9-15.6,18.6V356c0,10.3,8.3,18.9,18.6,19.1h7l21.1-16.6c2-1.5,4.1-4.7,4.1-8.2v-16H45.6v19.6c0,2.2-1.8,4.2-4,4.5
		c-0.4,0.1-0.8,0.1-1.3,0.1C39.9,358.5,39.4,358.4,39,358.3"/>
	<polygon points="98.4,325.5 132,354.2 114.6,280 86,280 69.7,352 101.2,327.4 108.4,327.4 108.4,323.1 95.1,323.1 100.5,296.5 
		106.5,325.5 	"/>
	<polygon points="175.2,280 175.2,298.6 161.6,298.6 161.6,374.9 156.4,374.9 139.8,360.8 139.8,298.6 126.3,298.6 126.3,280 	"/>
	<path class="st1" d="M627,303.4c6.3,0,11.5-5.1,11.5-11.5c0-6.3-5.1-11.5-11.5-11.5c-6.3,0-11.5,5.1-11.5,11.5
		C615.5,298.2,620.7,303.4,627,303.4z"/>
	<path d="M624.8,299h-2.5v-13.8h5c2,0,4.1,0.8,4.1,3.6c0,1.8-1,3-2.5,3.3l0,0c1.9,0.3,1.9,1.6,2.2,3.5c0.1,0.9,0.2,2.5,0.7,3.3H629
		c-0.2-1.2-0.3-2.5-0.4-3.7c-0.1-0.8-0.2-1.8-1.1-1.9h-2.7V299z M624.8,291.2h2.1c1.1,0,1.8-0.7,1.8-1.9c0-1.2-0.7-1.7-1.8-1.8h-2.1
		V291.2z"/>
</g>
</svg>
