<svg xmlns="http://www.w3.org/2000/svg" viewBox="0 0 500 500"><g id="freepik--Floor--inject-5"><path id="freepik--floor--inject-5" d="M88.26,453.63c-89.89-51.9-89.89-136,0-187.93s235.6-51.89,325.49,0,89.88,136,0,187.93S178.14,505.52,88.26,453.63Z" style="fill:#f5f5f5"></path></g><g id="freepik--Shadows--inject-5"><path id="freepik--Shadow--inject-5" d="M318.43,292.57l-4.95-2.85a13.39,13.39,0,0,0-12.14,0L40,440.58c-3.34,1.93-3.34,5.08,0,7L45,450.45a13.51,13.51,0,0,0,12.14,0l79.38-45.83L171.82,425c9.11,5.25,24,5.25,33.11,0l61-35.23c7.77-4.49,7.77-11.83,0-16.32l-37.74-21.79,90.27-52.09C321.77,297.65,321.77,294.5,318.43,292.57Z" style="fill:#e0e0e0"></path><ellipse id="freepik--shadow--inject-5" cx="381.47" cy="434.21" rx="61.27" ry="35.37" style="fill:#e0e0e0"></ellipse></g><g id="freepik--Device--inject-5"><g id="freepik--Monitor--inject-5"><path d="M206.92,415.26l46.58-26.92c4.8-2.78,7.2-6.41,7.2-10s0-6.48,0-6.48L216.89,347a10.26,10.26,0,0,1-4.63-8V297.38l-81.35,47v41.53a10.25,10.25,0,0,0,4.64,8l36.6,21.32C181.76,420.81,197.32,420.81,206.92,415.26Z" style="fill:#f5f5f5"></path><path d="M150.44,396.09v6.45L135.53,394a10.26,10.26,0,0,1-4.63-8V344.39l15.5-8.94c.32,3.93.67,8,1,12l-10.87,6.29v29a10.18,10.18,0,0,0,4.63,8Z" style="opacity:0.15"></path><path d="M136.52,382.69a10.25,10.25,0,0,0,4.64,8l31,18.07c9.6,5.54,25.17,5.54,34.77,0l46.6-26.92c9.6-5.54,9.6-14.53,0-20.07l-31-18.09a10.25,10.25,0,0,1-4.64-8v-29l-81.35,47Z" style="fill:#e6e6e6"></path><path d="M232,349.17h0l-9.44-5.45a10.25,10.25,0,0,1-4.64-8v-29l-81.35,47v29a10.25,10.25,0,0,0,4.64,8l9.28,5.36Z" style="opacity:0.15"></path><path d="M39.62,425.79c3,1.73,8,1.64,11.23-.21L318.49,271.07a12.82,12.82,0,0,0,5.79-10V25.38c0-3.69-2.43-8.09-5.44-9.83s-8-1.64-11.23.21L40,170.28a12.82,12.82,0,0,0-5.8,10V416C34.18,419.66,36.61,424.06,39.62,425.79Z" style="fill:#455a64"></path><path d="M50.85,425.58,318.49,271.06a12.81,12.81,0,0,0,5.79-10V25.38c0-3.7-2.59-5.2-5.79-3.35L50.85,176.55a12.81,12.81,0,0,0-5.79,10V422.23C45.05,425.93,47.65,427.42,50.85,425.58Z" style="fill:#37474f"></path><path d="M45.06,410.71v11.52c0,3.7,2.6,5.19,5.8,3.35L318.49,271.06a12.81,12.81,0,0,0,5.79-10V249.49Z" style="fill:#ebebeb"></path><path d="M52.71,392.37V189.17A7.86,7.86,0,0,1,56.28,183L313.05,34.75c2-1.14,3.56-.22,3.56,2.06V240a7.85,7.85,0,0,1-3.56,6.17L56.28,394.42C54.31,395.56,52.71,394.64,52.71,392.37Z" style="fill:#263238"></path><path d="M35.89,174.59l10.87,6.26a12.15,12.15,0,0,0-1.71,5.73V422.23c0,3.37,2.29,5.26,5.8,3.35a12.31,12.31,0,0,1-11.23.21,11.16,11.16,0,0,1-5.44-9.13V180.32A12,12,0,0,1,35.89,174.59Z" style="fill:#263238"></path></g></g><g id="freepik--Windows--inject-5"><g id="freepik--Window--inject-5"><path d="M60.24,384.12a1.9,1.9,0,0,1-1-.25,1.88,1.88,0,0,1-.95-1.65V189.59l0-.08a1.91,1.91,0,0,1,.35-.62l.13-.1L308.64,44.38A1.9,1.9,0,0,1,311.49,46V238.66l0,.08a1.86,1.86,0,0,1-.35.61l-.13.11L61.19,383.87A1.93,1.93,0,0,1,60.24,384.12Zm-.86-194.35V382.22a.86.86,0,0,0,1.29.74L310.38,238.6a.4.4,0,0,0,.07-.13V46a.85.85,0,0,0-.43-.74.88.88,0,0,0-.86,0L59.46,189.64Z" style="fill:#455a64"></path><path d="M311,64V46a1.38,1.38,0,0,0-2.07-1.19L59.11,189.24a1.43,1.43,0,0,0-.25.43v20Z" style="fill:#37474f"></path><path d="M64.65,189.22l1.53-.88c.75-.43,1.36-.08,1.36.78v1.77a3,3,0,0,1-1.36,2.35l-1.53.88c-.75.43-1.35.08-1.35-.78v-1.77A3,3,0,0,1,64.65,189.22Z" style="fill:#3592FF"></path><path d="M64.65,198.13l1.53-.88c.75-.43,1.36-.08,1.36.79v1.76a3,3,0,0,1-1.36,2.35l-1.53.88c-.75.43-1.35.08-1.35-.78v-1.77A3,3,0,0,1,64.65,198.13Z" style="fill:#455a64"></path><path d="M94.33,181l1.53-.88c.75-.44,1.36-.09,1.36.78v1.76A3,3,0,0,1,95.86,185l-1.53.88c-.74.44-1.35.09-1.35-.78v-1.76A3,3,0,0,1,94.33,181Z" style="fill:#455a64"></path><path d="M102.81,176.1l1.53-.88c.75-.43,1.36-.08,1.36.78v1.77a3,3,0,0,1-1.36,2.35l-1.53.88c-.74.43-1.35.08-1.35-.79v-1.76A3,3,0,0,1,102.81,176.1Z" style="fill:#263238"></path><path d="M111.3,171.2l1.52-.88c.75-.43,1.36-.08,1.36.79v1.76a3,3,0,0,1-1.36,2.35l-1.52.88c-.75.43-1.36.08-1.36-.78v-1.77A3,3,0,0,1,111.3,171.2Z" style="fill:#455a64"></path><path d="M71.78,188.08a.53.53,0,0,1-.46-.26.52.52,0,0,1,.2-.71l12.72-7.35A.53.53,0,0,1,85,180a.53.53,0,0,1-.19.72L72,188A.54.54,0,0,1,71.78,188.08Z" style="fill:#455a64"></path><path d="M109.94,166.05a.53.53,0,0,1-.26-1l12.72-7.34a.52.52,0,1,1,.52.9L110.2,166A.48.48,0,0,1,109.94,166.05Z" style="fill:#455a64"></path><path d="M165.06,134.22a.52.52,0,0,1-.26-1l12.72-7.35a.53.53,0,1,1,.53.91l-12.72,7.34A.54.54,0,0,1,165.06,134.22Z" style="fill:#455a64"></path><path d="M93,175.84a.5.5,0,0,1-.45-.26.51.51,0,0,1,.19-.71l8.48-4.9a.52.52,0,1,1,.52.9l-8.48,4.9A.48.48,0,0,1,93,175.84Z" style="fill:#455a64"></path><path d="M131.14,153.81a.53.53,0,0,1-.26-1l8.48-4.89a.52.52,0,0,1,.52.9l-8.48,4.9A.59.59,0,0,1,131.14,153.81Z" style="fill:#455a64"></path><path d="M148.1,144a.52.52,0,0,1-.26-1l8.48-4.9a.52.52,0,1,1,.52.91l-8.48,4.89A.48.48,0,0,1,148.1,144Z" style="fill:#455a64"></path><path d="M186.27,122a.53.53,0,0,1-.46-.26A.52.52,0,0,1,186,121l8.49-4.9a.52.52,0,0,1,.52.9l-8.48,4.9A.54.54,0,0,1,186.27,122Z" style="fill:#455a64"></path><path d="M203.23,112.19a.55.55,0,0,1-.46-.26.54.54,0,0,1,.2-.72l4.24-2.44a.51.51,0,0,1,.71.19.52.52,0,0,1-.19.71l-4.24,2.45A.48.48,0,0,1,203.23,112.19Z" style="fill:#455a64"></path><path d="M216,104.84a.5.5,0,0,1-.45-.26.51.51,0,0,1,.19-.71l12.72-7.34a.52.52,0,1,1,.52.9l-12.72,7.34A.48.48,0,0,1,216,104.84Z" style="fill:#455a64"></path><path d="M72.68,193l10.91-6.3c.5-.29.91-.05.91.52v2.81a2,2,0,0,1-.91,1.57l-10.91,6.3c-.5.29-.9.05-.9-.52v-2.81A2,2,0,0,1,72.68,193Z" style="fill:#263238"></path><path d="M119.32,166.05l10.92-6.3c.5-.29.9-.06.9.52v2.81a2,2,0,0,1-.9,1.56l-10.92,6.3c-.5.29-.9.06-.9-.52v-2.81A2,2,0,0,1,119.32,166.05Z" style="fill:#263238"></path><path d="M161.73,141.57l10.91-6.3c.5-.29.9-.06.9.52v2.81a2,2,0,0,1-.9,1.56l-10.91,6.3c-.5.29-.91.06-.91-.52v-2.81A2,2,0,0,1,161.73,141.57Z" style="fill:#263238"></path><path d="M199.89,119.53l10.91-6.3c.5-.29.91,0,.91.52v2.81a2,2,0,0,1-.91,1.57l-10.91,6.3c-.5.29-.9,0-.9-.52V121.1A2,2,0,0,1,199.89,119.53Z" style="fill:#263238"></path><path d="M139.62,157a.52.52,0,0,1-.26-1l17-9.8a.52.52,0,0,1,.71.2.51.51,0,0,1-.19.71l-17,9.79A.48.48,0,0,1,139.62,157Z" style="fill:#455a64"></path><path d="M182,132.67a.54.54,0,0,1-.45-.26.53.53,0,0,1,.19-.72l11.37-6.56a.52.52,0,1,1,.52.9L182.3,132.6A.48.48,0,0,1,182,132.67Z" style="fill:#455a64"></path><path d="M306.92,49.59c1-.59,1.87-.11,1.87,1.08a4.16,4.16,0,0,1-1.87,3.25c-1,.59-1.88.11-1.88-1.09A4.14,4.14,0,0,1,306.92,49.59Z" style="fill:#e0e0e0"></path><path d="M300.18,53.48c1-.6,1.87-.11,1.87,1.08a4.15,4.15,0,0,1-1.87,3.24c-1,.6-1.87.11-1.87-1.08A4.11,4.11,0,0,1,300.18,53.48Z" style="fill:#263238"></path><path d="M293.44,57.36c1-.59,1.87-.11,1.87,1.08a4.12,4.12,0,0,1-1.87,3.24c-1,.6-1.87.12-1.87-1.08A4.15,4.15,0,0,1,293.44,57.36Z" style="fill:#263238"></path></g><g id="freepik--Toolbar--inject-5"><path d="M91.66,205.84a1,1,0,0,0-.92.09L69,218.46a2.87,2.87,0,0,0-1.3,2.24V361.29a.92.92,0,0,0,.37.83l4.25,2.45a.9.9,0,0,0,.92-.09L95,352a2.85,2.85,0,0,0,1.3-2.24V209.13a.91.91,0,0,0-.38-.84Z" style="fill:#455a64"></path><path d="M72,228l.37-6.13-4.24-2.44a2.63,2.63,0,0,0-.38,1.26V361.29a.92.92,0,0,0,.37.83l4.25,2.45a.9.9,0,0,0,.92-.09h0L72,363.73Z" style="fill:#37474f"></path><path d="M72,223.15V363.73c0,.83.58,1.16,1.29.75L95,352a2.85,2.85,0,0,0,1.3-2.24V209.13c0-.83-.58-1.16-1.3-.75l-21.7,12.53A2.87,2.87,0,0,0,72,223.15Z" style="fill:#455a64"></path><path d="M95,208.38l-21.7,12.53A2.87,2.87,0,0,0,72,223.15V228l24.29-14v-4.86C96.28,208.3,95.7,208,95,208.38Z" style="fill:#37474f"></path><g style="opacity:0.2"><path d="M75.54,232l6.09-3.52c.46-.26.82-.05.82.48v7a1.81,1.81,0,0,1-.83,1.43l-6.09,3.52c-.46.26-.83,0-.83-.48v-7A1.81,1.81,0,0,1,75.54,232Z" style="fill:#fff"></path><path d="M86.62,225.56,92.71,222c.46-.26.83,0,.83.48v7a1.82,1.82,0,0,1-.82,1.43l-6.1,3.52c-.45.26-.82.05-.82-.48v-7A1.82,1.82,0,0,1,86.62,225.56Z" style="fill:#fff"></path><path d="M75.54,244.51,81.63,241c.46-.26.82-.05.82.48v7a1.81,1.81,0,0,1-.83,1.43l-6.09,3.52c-.46.26-.83.05-.83-.48v-7A1.81,1.81,0,0,1,75.54,244.51Z" style="fill:#fff"></path><path d="M86.62,238.11l6.09-3.51c.46-.27.83,0,.83.47v7a1.86,1.86,0,0,1-.82,1.43l-6.1,3.51c-.45.27-.82,0-.82-.47v-7A1.86,1.86,0,0,1,86.62,238.11Z" style="fill:#fff"></path><path d="M75.54,257.06l6.09-3.51c.46-.27.82-.05.82.47v7a1.84,1.84,0,0,1-.83,1.43L75.54,266c-.46.27-.83.05-.83-.47v-7A1.84,1.84,0,0,1,75.54,257.06Z" style="fill:#fff"></path><path d="M86.62,250.67l6.09-3.52c.46-.26.83-.05.83.48v7a1.82,1.82,0,0,1-.82,1.43l-6.1,3.52c-.45.26-.82.05-.82-.48v-7A1.82,1.82,0,0,1,86.62,250.67Z" style="fill:#fff"></path><path d="M75.54,269.62l6.09-3.52c.46-.26.82-.05.82.48v7a1.81,1.81,0,0,1-.83,1.43l-6.09,3.52c-.46.26-.83.05-.83-.48v-7A1.81,1.81,0,0,1,75.54,269.62Z" style="fill:#fff"></path><path d="M86.62,263.22l6.09-3.52c.46-.26.83-.05.83.48v7a1.82,1.82,0,0,1-.82,1.43l-6.1,3.52c-.45.27-.82,0-.82-.47v-7A1.82,1.82,0,0,1,86.62,263.22Z" style="fill:#fff"></path><path d="M75.54,282.17l6.09-3.51c.46-.27.82-.05.82.47v7a1.81,1.81,0,0,1-.83,1.42l-6.09,3.52c-.46.27-.83.05-.83-.47v-7A1.84,1.84,0,0,1,75.54,282.17Z" style="fill:#fff"></path><path d="M86.62,275.78l6.09-3.52c.46-.26.83-.05.83.48v7a1.82,1.82,0,0,1-.82,1.43l-6.1,3.52c-.45.26-.82,0-.82-.48v-7A1.82,1.82,0,0,1,86.62,275.78Z" style="fill:#fff"></path><path d="M75.54,294.73l6.09-3.52c.46-.26.82,0,.82.48v7a1.81,1.81,0,0,1-.83,1.43l-6.09,3.52c-.46.26-.83.05-.83-.48v-7A1.81,1.81,0,0,1,75.54,294.73Z" style="fill:#fff"></path><path d="M86.62,288.33l6.09-3.52c.46-.26.83-.05.83.48v7a1.82,1.82,0,0,1-.82,1.43l-6.1,3.52c-.45.26-.82.05-.82-.48v-7A1.82,1.82,0,0,1,86.62,288.33Z" style="fill:#fff"></path><path d="M75.54,307.28l6.09-3.52c.46-.26.82-.05.82.48v7a1.81,1.81,0,0,1-.83,1.43l-6.09,3.52c-.46.26-.83,0-.83-.48v-7A1.81,1.81,0,0,1,75.54,307.28Z" style="fill:#fff"></path><path d="M86.62,300.88l6.09-3.51c.46-.27.83-.05.83.47v7a1.86,1.86,0,0,1-.82,1.43l-6.1,3.51c-.45.27-.82.05-.82-.47v-7A1.86,1.86,0,0,1,86.62,300.88Z" style="fill:#fff"></path><path d="M75.54,319.83l6.09-3.51c.46-.27.82-.05.82.47v7a1.84,1.84,0,0,1-.83,1.43l-6.09,3.51c-.46.27-.83.05-.83-.47v-7A1.84,1.84,0,0,1,75.54,319.83Z" style="fill:#fff"></path><path d="M86.62,313.44l6.09-3.52c.46-.26.83-.05.83.48v7a1.82,1.82,0,0,1-.82,1.43l-6.1,3.52c-.45.26-.82.05-.82-.48v-7A1.82,1.82,0,0,1,86.62,313.44Z" style="fill:#fff"></path></g><path d="M75.42,335.42l10.22-5.9c.76-.44,1.38-.09,1.38.8v11.8a3.07,3.07,0,0,1-1.38,2.4l-10.22,5.9c-.77.44-1.39.09-1.39-.8v-11.8A3,3,0,0,1,75.42,335.42Z" style="fill:#fafafa"></path><path d="M92.08,337.73v9.68a1.12,1.12,0,0,1-.31.55l-8.39,4.85v-9.68a1,1,0,0,1,.31-.55l8.39-4.85m1.37-3.1a1.22,1.22,0,0,0-.61.19l-10.22,5.9a3.06,3.06,0,0,0-1.39,2.4v11.8c0,.63.31,1,.77,1a1.29,1.29,0,0,0,.62-.19l10.22-5.9a3.07,3.07,0,0,0,1.38-2.4v-11.8c0-.63-.31-1-.77-1Z" style="fill:#263238"></path></g><g id="freepik--files-window--inject-5"><g id="freepik--window--inject-5"><g id="freepik--window--inject-5"><path d="M466.57,16.58c.56.34,3.18,1.83,3.83,2.17a1.8,1.8,0,0,0-.71-.15,2.77,2.77,0,0,0-1.4.44L414,50.36a6.94,6.94,0,0,0-3.14,5.43v93.54a3.87,3.87,0,0,0,0,.48c0,.12.05.26.08.38a2.34,2.34,0,0,0,.09.38,2.5,2.5,0,0,0,.32.68,1.07,1.07,0,0,0,.15.22,1.18,1.18,0,0,0,.23.27l0,0a2.11,2.11,0,0,0,.23.19l-.09-.06-3.76-2.13a3,3,0,0,1-1.32-2.72V53.51a6.52,6.52,0,0,1,.95-3.14,6.44,6.44,0,0,1,2.19-2.29l54.34-31.32A2.26,2.26,0,0,1,466.57,16.58Z" style="fill:#263238"></path></g><path id="freepik--Outline--inject-5" d="M469.69,18.61a2.82,2.82,0,0,0-1.4.42L414,50.36a6.94,6.94,0,0,0-3.14,5.43v93.54c0,1.58.88,2.92,2.11,2.92a2,2,0,0,0,1-.3l54.34-31.38a6.89,6.89,0,0,0,3.13-5.42V20.85c0-1.42-.7-2.24-1.73-2.24Z" style="fill:#37474f"></path><path id="freepik--outline--inject-5" d="M411.74,151.77a1.66,1.66,0,0,1,.14.13l.09.06A2.11,2.11,0,0,1,411.74,151.77Z" style="fill:#37474f"></path><g id="freepik--up-bar--inject-5"><path d="M457.69,28.19A3.53,3.53,0,0,0,456.34,31c0,1.14.6,1.72,1.35,1.29A3.54,3.54,0,0,0,459,29.49C459,28.34,458.43,27.76,457.69,28.19Z" style="fill:#455a64"></path><path d="M462.53,25.39a3.54,3.54,0,0,0-1.35,2.85c0,1.14.6,1.72,1.35,1.29a3.54,3.54,0,0,0,1.34-2.84C463.87,25.54,463.27,25,462.53,25.39Z" style="fill:#455a64"></path><path d="M467.37,22.59A3.54,3.54,0,0,0,466,25.44c0,1.14.6,1.72,1.35,1.29a3.54,3.54,0,0,0,1.34-2.84C468.71,22.74,468.11,22.17,467.37,22.59Z" style="fill:#455a64"></path><path d="M468.29,19,414,50.36a6.5,6.5,0,0,0-2.21,2.32l-4-2.3a6.18,6.18,0,0,1,2.18-2.29l54.34-31.32a2.18,2.18,0,0,1,2.28-.19c.56.34,3.17,1.82,3.83,2.18A2.26,2.26,0,0,0,468.29,19Z" style="fill:#455a64"></path></g></g><path d="M410.3,66.25a.28.28,0,0,1-.23-.13.25.25,0,0,1,.09-.36L414.84,63V58.26A.28.28,0,0,1,415,58l12.85-7.42a.26.26,0,0,1,.27,0,.28.28,0,0,1,.13.23v4.49l42.46-24.51a.27.27,0,0,1,.36.09.26.26,0,0,1-.1.36L428.09,56a.26.26,0,0,1-.27,0,.28.28,0,0,1-.13-.23V51.3l-12.33,7.12v4.7a.23.23,0,0,1-.13.22l-4.8,2.87A.22.22,0,0,1,410.3,66.25Z" style="fill:#263238"></path><polygon points="428.89 50.3 441.75 42.88 441.75 46.74 428.89 54.16 428.89 50.3" style="fill:#263238"></polygon><polygon points="442.52 42.4 455.38 34.97 455.38 38.83 442.52 46.26 442.52 42.4" style="fill:#263238"></polygon><path d="M415.1,68.16l1.54-.89c.76-.44,1.37-.08,1.37.79v1.78a3,3,0,0,1-1.37,2.38l-1.54.89c-.76.44-1.37.08-1.37-.79V70.53A3,3,0,0,1,415.1,68.16Z" style="fill:#455a64"></path><path d="M415.1,80.45l1.54-.89c.76-.44,1.37-.09,1.37.79v1.78a3,3,0,0,1-1.37,2.38l-1.54.89c-.76.43-1.37.08-1.37-.79V82.82A3,3,0,0,1,415.1,80.45Z" style="fill:#455a64"></path><path d="M415.1,90.45l1.54-.89c.76-.44,1.37-.09,1.37.79v1.78a3,3,0,0,1-1.37,2.37l-1.54.9c-.76.43-1.37.08-1.37-.8V92.82A3,3,0,0,1,415.1,90.45Z" style="fill:#455a64"></path><path d="M415.1,100.44l1.54-.89c.76-.43,1.37-.08,1.37.79v1.79a3,3,0,0,1-1.37,2.37l-1.54.89c-.76.44-1.37.09-1.37-.79v-1.78A3,3,0,0,1,415.1,100.44Z" style="fill:#455a64"></path><path d="M415.1,110.44l1.54-.89c.76-.44,1.37-.08,1.37.79v1.79a3,3,0,0,1-1.37,2.37l-1.54.89c-.76.44-1.37.08-1.37-.79v-1.78A3,3,0,0,1,415.1,110.44Z" style="fill:#455a64"></path><path d="M415.1,120.44l1.54-.89c.76-.44,1.37-.08,1.37.79v1.79a3,3,0,0,1-1.37,2.37l-1.54.89c-.76.44-1.37.08-1.37-.79v-1.78A3,3,0,0,1,415.1,120.44Z" style="fill:#455a64"></path><path d="M415.1,130.44l1.54-.89c.76-.44,1.37-.08,1.37.79v1.78a3,3,0,0,1-1.37,2.38l-1.54.89c-.76.44-1.37.08-1.37-.79v-1.79A3,3,0,0,1,415.1,130.44Z" style="fill:#455a64"></path><path d="M420.4,65.1l11-6.37c.5-.29.91,0,.91.53V62.1a2,2,0,0,1-.91,1.58l-11,6.37c-.51.29-.91,0-.91-.53V66.68A2,2,0,0,1,420.4,65.1Z" style="fill:#263238"></path><path d="M436.44,55.84,438,55c.75-.44,1.37-.09,1.37.79v1.78A3,3,0,0,1,438,59.89l-1.55.9c-.75.43-1.37.08-1.37-.79V58.21A3,3,0,0,1,436.44,55.84Z" style="fill:#455a64"></path><path d="M441.74,52.78l11-6.37c.51-.29.92-.06.92.53v2.84a2,2,0,0,1-.92,1.58l-11,6.37c-.5.29-.91.05-.91-.53V54.36A2,2,0,0,1,441.74,52.78Z" style="fill:#263238"></path><path d="M412.66,79.73a.26.26,0,0,1-.23-.13.27.27,0,0,1,.1-.36L460,51.84a.26.26,0,0,1,.36.1.27.27,0,0,1-.09.36L412.8,79.7A.35.35,0,0,1,412.66,79.73Z" style="fill:#263238"></path><path d="M412.66,89.63a.28.28,0,0,1-.23-.13.27.27,0,0,1,.1-.36L460,61.74a.26.26,0,0,1,.36.09.27.27,0,0,1-.09.36L412.8,89.6A.35.35,0,0,1,412.66,89.63Z" style="fill:#263238"></path><path d="M412.66,99.53a.28.28,0,0,1-.23-.13.27.27,0,0,1,.1-.36L460,71.63a.26.26,0,0,1,.36.1.27.27,0,0,1-.09.36L412.8,99.49A.25.25,0,0,1,412.66,99.53Z" style="fill:#263238"></path><path d="M412.66,109.43a.27.27,0,0,1-.23-.14.28.28,0,0,1,.1-.36L460,81.53a.26.26,0,0,1,.36.1.27.27,0,0,1-.09.36l-47.45,27.4A.37.37,0,0,1,412.66,109.43Z" style="fill:#263238"></path><path d="M412.66,119.32a.26.26,0,0,1-.23-.13.27.27,0,0,1,.1-.36L460,91.43a.26.26,0,0,1,.36.1.27.27,0,0,1-.09.36l-47.45,27.4A.35.35,0,0,1,412.66,119.32Z" style="fill:#263238"></path><path d="M412.66,129.22a.28.28,0,0,1-.23-.13.27.27,0,0,1,.1-.36L460,101.33a.25.25,0,0,1,.36.09.27.27,0,0,1-.09.36l-47.45,27.4A.25.25,0,0,1,412.66,129.22Z" style="fill:#263238"></path><path d="M412.66,139.12a.27.27,0,0,1-.23-.14.28.28,0,0,1,.1-.36L460,111.22a.26.26,0,0,1,.36.1.27.27,0,0,1-.09.36l-47.45,27.4A.25.25,0,0,1,412.66,139.12Z" style="fill:#263238"></path><path d="M423.59,74.61l3.91-2.26c.25-.15.46,0,.46.26v6a1,1,0,0,1-.46.79l-3.91,2.25c-.26.15-.46,0-.46-.26v-6A1,1,0,0,1,423.59,74.61Z" style="fill:#e0e0e0"></path><path d="M423.59,84.58l3.91-2.26c.25-.15.46,0,.46.26v6a1,1,0,0,1-.46.79l-3.91,2.25c-.26.15-.46,0-.46-.26v-6A1,1,0,0,1,423.59,84.58Z" style="fill:#e0e0e0"></path><path d="M423.59,94.55l3.91-2.26c.25-.15.46,0,.46.26v6a1,1,0,0,1-.46.79l-3.91,2.25c-.26.15-.46,0-.46-.26v-6A1,1,0,0,1,423.59,94.55Z" style="fill:#e0e0e0"></path><path d="M423.59,104.52l3.91-2.26c.25-.15.46,0,.46.26v6a1,1,0,0,1-.46.79l-3.91,2.25c-.26.15-.46,0-.46-.26v-6A1,1,0,0,1,423.59,104.52Z" style="fill:#e0e0e0"></path><path d="M423.59,114.49l3.91-2.26c.25-.15.46,0,.46.26v6a1,1,0,0,1-.46.79l-3.91,2.26c-.26.14-.46,0-.46-.27v-6A1,1,0,0,1,423.59,114.49Z" style="fill:#e0e0e0"></path><path d="M423.59,124.46l3.91-2.26c.25-.15.46,0,.46.26v6a1,1,0,0,1-.46.79l-3.91,2.26c-.26.14-.46,0-.46-.27v-6A1,1,0,0,1,423.59,124.46Z" style="fill:#e0e0e0"></path><g style="opacity:0.2"><path d="M432.24,73.9a.77.77,0,0,1-.68-.4.79.79,0,0,1,.29-1.08l17.3-10a.79.79,0,0,1,.79,1.37l-17.3,10A.73.73,0,0,1,432.24,73.9Z" style="fill:#fff"></path></g><g style="opacity:0.2"><path d="M432.24,83.8a.77.77,0,0,1-.68-.4.79.79,0,0,1,.29-1.08L444.7,74.9a.79.79,0,1,1,.79,1.37l-12.85,7.42A.83.83,0,0,1,432.24,83.8Z" style="fill:#fff"></path></g><g style="opacity:0.2"><path d="M432.24,93.7a.79.79,0,0,1-.39-1.48l21.42-12.37a.79.79,0,0,1,.79,1.37L432.64,93.59A.83.83,0,0,1,432.24,93.7Z" style="fill:#fff"></path></g><g style="opacity:0.2"><path d="M432.24,103.59a.79.79,0,0,1-.39-1.47l8.57-5a.79.79,0,1,1,.79,1.37l-8.57,4.95A.82.82,0,0,1,432.24,103.59Z" style="fill:#fff"></path></g><g style="opacity:0.2"><path d="M432.24,113.49a.77.77,0,0,1-.68-.4.79.79,0,0,1,.29-1.08l12.85-7.42a.79.79,0,1,1,.79,1.37l-12.85,7.42A.73.73,0,0,1,432.24,113.49Z" style="fill:#fff"></path></g><g style="opacity:0.2"><path d="M432.24,123.39a.77.77,0,0,1-.68-.4.79.79,0,0,1,.29-1.08l17.3-10a.79.79,0,1,1,.79,1.37l-17.3,10A.83.83,0,0,1,432.24,123.39Z" style="fill:#fff"></path></g><g id="freepik--scroll-barr--inject-5"><polygon points="467.76 40.48 463.47 42.95 463.47 117.18 467.76 114.71 467.76 40.48" style="fill:#263238"></polygon><path d="M465.61,43.15a2.84,2.84,0,0,0-1.15,2.25V82.16c0,.88.52,1.29,1.15.92a2.81,2.81,0,0,0,1.16-2.25V44.07C466.77,43.2,466.25,42.79,465.61,43.15Z" style="fill:#37474f"></path></g></g></g><g id="freepik--Artboards--inject-5"><g id="freepik--Artboard--inject-5"><g id="freepik--Sheet--inject-5"><polygon points="126.33 196 249.61 124.82 249.61 310.96 126.28 382.17 126.33 196" style="fill:#fff"></polygon><path d="M249.28,125.39V310.77L126.61,381.59l0-185.4,122.62-70.8m.66-1.14L126,195.81l0,186.93,124-71.59V124.25Z" style="fill:#ebebeb"></path><polygon points="126 195.81 123.24 194.22 247.18 122.66 249.94 124.25 126 195.81" style="fill:#f0f0f0"></polygon><polygon points="126 195.81 125.95 382.74 123.26 381.19 123.24 194.22 125.95 195.77 126 195.81" style="fill:#e0e0e0"></polygon></g><path d="M133,199.77l-.06,0,0,170.74v.21L243,307.19l.06,0V136.24Zm109.8-45.89-14.91,8.61V145.26l14.91-8.61Zm-94.71,59.34v17.22l-14.92,8.61V221.83Zm-14.92,8.32v-4.08l14.92-8.61v4.08Zm14.92,9.19v4.07l-14.92,8.62v-4.08Zm0,4.36v17.22l-14.93,8.62V243.71Zm0,17.51v4.08l-14.93,8.62v-4.08Zm0,4.37v17.22l-14.93,8.62V265.59Zm0,17.51v4.07l-14.94,8.63V283.1Zm0,4.36v17.22l-14.94,8.63V287.47Zm0,17.51v4.08l-14.94,8.63V305Zm0,4.37v17.22l-14.95,8.63V309.35Zm0,17.51v4.07l-14.95,8.63v-4.07Zm0,4.36v17.22l-14.95,8.64V331.23Zm0,17.51v4.08l-14.95,8.63v-4.07Zm76-44.17V278.71l3.52-2v17.22Zm3.52-1.75v4.07l-3.52,2v-4.07Zm-3.52-15.76v-4.08l3.52-2v4.08Zm0-4.37V256.83l3.52-2V272Zm0-17.51v-4.07l3.52-2v4.07Zm0-4.36V235l3.52-2v17.22Zm0-17.51v-4.08l3.52-2v4.08Zm0-4.37V213.08l3.52-2v17.22Zm0-17.51v-4.07l3.52-2v4.07Zm0-4.37V191.21l3.52-2v17.22Zm0-17.5v-4.08l3.52-2v4.08Zm0-4.37V169.33l3.52-2v17.22Zm0-17.51V165l3.52-2V167ZM208.93,304.68V287.46l14.9-8.61v17.22Zm14.9-8.32v4.08l-14.9,8.6V305Zm-14.9-9.19v-4.08l14.9-8.6v4.07Zm0-4.37V265.58l14.9-8.6V274.2Zm0-17.51v-4.07l14.9-8.61v4.08Zm0-4.36V243.71l14.9-8.61v17.22Zm0-17.51v-4.08l14.9-8.6v4.07Zm0-4.37V221.83l14.9-8.6v17.21Zm0-17.51v-4.07l14.9-8.61v4.08Zm0-4.36V200l14.9-8.61v17.22Zm0-17.51v-4.08l14.9-8.61v4.08Zm0-4.37V178.08l14.9-8.6v17.21Zm0-17.51v-4.07l14.9-8.61v4.08Zm0-4.36V156.2l14.9-8.61v17.23Zm-3.78,133.43V289.64l3.52-2v17.22Zm3.52-1.75v4.08l-3.52,2v-4.08Zm-3.52-15.76v-4.07l3.52-2v4.07Zm0-4.36V267.77l3.52-2V283Zm0-17.51V263.4l3.52-2v4.08Zm0-4.37V245.89l3.52-2v17.22Zm0-17.51v-4.07l3.52-2v4.07Zm0-4.37V224l3.52-2V239.2Zm0-17.5v-4.08l3.52-2v4.08Zm0-4.37V202.14l3.52-2v17.22Zm0-17.51v-4.08l3.52-2v4.07Zm0-4.37V180.27l3.52-2v17.22Zm0-17.5V175.9l3.52-2v4.08Zm0-4.37V158.38l3.52-2v17.23ZM190,315.61V298.4l14.91-8.61V307Zm14.91-8.31v4.07L190,320V315.9ZM190,298.1V294l14.91-8.61v4.08Zm0-4.36V276.52l14.91-8.61v17.22Zm0-17.51v-4.08l14.91-8.6v4.07Zm0-4.37V254.64l14.91-8.6v17.22Zm0-17.51v-4.07l14.91-8.61v4.08Zm0-4.36V232.77l14.91-8.61v17.22Zm0-17.51V228.4l14.91-8.6v4.07Zm0-4.37V210.89l14.91-8.6V219.5Zm0-17.51v-4.07l14.91-8.61V202Zm0-4.36V189l14.91-8.61v17.22Zm0-17.51v-4.08L204.89,176v4.08Zm0-4.37V167.13l14.91-8.6v17.22ZM186.2,317.8V300.58l3.53-2v17.22Zm3.53-1.75v4.08l-3.53,2v-4.07Zm-3.53-15.76v-4.08l3.53-2v4.08Zm0-4.37V278.7l3.53-2v17.21Zm0-17.51v-4.07l3.53-2v4.07Zm0-4.36V256.83l3.53-2V272Zm0-17.51v-4.08l3.53-2v4.08Zm0-4.37V235l3.53-2v17.22Zm0-17.51v-4.07l3.53-2v4.07Zm0-4.37V213.08l3.53-2v17.22Zm0-17.5v-4.08l3.53-2v4.08Zm0-4.37V191.2l3.53-2v17.22Zm0-17.51v-4.07l3.53-2v4.07Zm0-4.37V169.32l3.53-2v17.23ZM171,326.55V309.33L186,300.72v17.22ZM186,318.23v4.08L171,330.92v-4.08ZM171,309V305l14.91-8.6v4.07Zm0-4.37V287.46L186,278.85v17.22Zm0-17.51v-4.07L186,274.48v4.08Zm0-4.36V265.58L186,257v17.22Zm0-17.51v-4.08l14.91-8.6v4.07Zm0-4.37V243.7L186,235.1v17.22Zm0-17.51v-4.07L186,230.73v4.08Zm0-4.36V221.83L186,213.22v17.22Zm0-17.51v-4.08l14.91-8.6v4.07Zm0-4.37V200l14.91-8.6v17.21Zm0-17.51v-4.07L186,187v4.08Zm0-4.36V178.07L186,169.46v17.23Zm-3.78,133.43V311.51l3.53-2v17.21Zm3.53-1.75v4.08l-3.53,2V329Zm-3.53-15.76v-4.07l3.53-2v4.07Zm0-4.36V289.64l3.53-2v17.22Zm0-17.51v-4.08l3.53-2v4.08Zm0-4.37V267.76l3.53-2v17.21Zm0-17.51V263.4l3.53-2v4.07Zm0-4.36V245.89l3.53-2v17.22Zm0-17.51v-4.08l3.53-2v4.08Zm0-4.37V224l3.53-2v17.22Zm0-17.51v-4.07l3.53-2v4.07Zm0-4.36V202.14l3.53-2v17.22Zm0-17.51v-4.08l3.53-2v4.08Zm0-4.37V180.25l3.53-2v17.23Zm-15.16,140V320.27L167,311.66v17.22ZM167,329.17v4.07l-14.91,8.61v-4.08ZM152.1,320V315.9L167,307.29v4.08Zm0-4.37V298.39L167,289.78V307Zm0-17.51V294l14.91-8.6v4.07Zm0-4.37V276.52L167,267.91v17.22Zm0-17.51v-4.07L167,263.54v4.08Zm0-4.36V254.64L167,246v17.22Zm0-17.51v-4.08l14.91-8.6v4.07Zm0-4.37V232.76l14.91-8.6v17.22Zm0-17.51V228.4L167,219.79v4.08Zm0-4.36V210.89L167,202.28V219.5Zm0-17.51v-4.08l14.91-8.6V202Zm0-4.37V189L167,180.4v17.22Zm-3.78,133.44V322.45l3.53-2v17.22Zm3.53-1.75V342l-3.53,2V340Zm-3.53-15.76v-4.08l3.53-2v4.08Zm0-4.37V300.57l3.53-2v17.21Zm0-17.51v-4.07l3.53-2v4.07Zm0-4.36V278.7l3.53-2v17.22Zm0-17.51v-4.08l3.53-2v4.08Zm0-4.37V256.82l3.53-2V272Zm0-17.51v-4.07l3.53-2v4.07Zm0-4.36V235l3.53-2v17.22Zm0-17.51v-4.08l3.53-2v4.08Zm0-4.37V213.07l3.53-2v17.22Zm0-17.51v-4.07l3.53-2v4.07Zm0-4.37V191.19l3.53-2v17.23Zm3.53,133.88v17.22l-3.53,2V344.32Zm.25-.15L167,333.53v17.23l-14.91,8.6Zm15.16-8.75,3.53-2v17.23l-3.53,2Zm3.78-2.18L186,322.6v17.22L171,348.43Zm15.16-8.76,3.53-2v17.22l-3.53,2Zm3.78-2.18,14.91-8.61v17.23L190,337.5Zm15.17-8.75,3.52-2v17.23l-3.52,2Zm3.78-2.18,14.9-8.61V318l-14.9,8.61Zm15.16-8.76,3.52-2v17.22l-3.52,2Zm0-135.91V147.45l3.52-2v17.23ZM227.87,294l14.91-8.61v4.08l-14.91,8.61Zm0-.29V276.52l14.91-8.61v17.22Zm0-17.51v-4.07l14.91-8.61v4.07Zm0-4.36V254.65L242.78,246v17.22Zm0-17.51v-4.08l14.91-8.61v4.08Zm0-4.37V232.77l14.91-8.61v17.22Zm0-17.51v-4.07l14.91-8.61v4.07Zm0-4.36V210.9l14.91-8.61v17.22Zm0-17.51v-4.08l14.91-8.61V202Zm0-4.37V189l14.91-8.61v17.22Zm0-17.51v-4.07l14.91-8.61v4.07Zm0-4.36V167.15l14.91-8.61v17.22Zm0-17.51v-4.08l14.91-8.61v4.08Zm-79.8,24.47v17.23l-14.92,8.61V199.94ZM133.12,353.1l14.95-8.63v17.22l-15,8.64Zm94.75-37.47V298.4l14.91-8.61V307Z" style="fill:#e0e0e0"></path><g style="opacity:0.25"><polygon points="133.16 199.94 167.01 180.4 167.01 350.76 133.16 370.31 133.16 199.94" style="fill:#3592FF"></polygon><polygon points="171.04 178.07 204.89 158.53 204.89 328.89 171.04 348.44 171.04 178.07" style="fill:#3592FF"></polygon><polygon points="208.93 156.2 242.78 136.65 242.78 307.01 208.92 326.56 208.93 156.2" style="fill:#3592FF"></polygon></g></g><g id="freepik--artboard--inject-5"><g id="freepik--sheet--inject-5"><polygon points="262.05 117.66 385.33 46.49 385.33 232.63 261.99 303.83 262.05 117.66" style="fill:#fff"></polygon><path d="M385,47.06V232.44L262.32,303.26l.06-185.41L385,47.06m.66-1.15L261.72,117.47l-.06,186.93,124-71.58V45.91Z" style="fill:#ebebeb"></path><polygon points="261.72 117.47 258.95 115.88 382.9 44.32 385.66 45.91 261.72 117.47" style="fill:#f0f0f0"></polygon><polygon points="261.72 117.47 261.66 304.4 258.98 302.85 258.95 115.88 261.66 117.44 261.72 117.47" style="fill:#e0e0e0"></polygon></g><path d="M268.7,121.43l-.06,0-.05,170.74v.2l110.09-63.55.06,0V57.9ZM378.5,75.55l-14.92,8.61V66.93l14.92-8.61Zm-94.71,59.33V152.1l-14.92,8.62V143.5Zm-14.92,8.33v-4.08l14.92-8.61v4.07Zm14.92,9.18v4.08l-14.93,8.61V161Zm0,4.37V174l-14.93,8.62V165.37Zm0,17.51v4.07L268.86,187v-4.07Zm0,4.36v17.22l-14.94,8.63V187.25Zm0,17.51v4.08l-14.94,8.62v-4.07Zm0,4.37v17.22l-14.94,8.62V209.13Zm0,17.51v4.07l-14.94,8.63v-4.07Zm0,4.36V239.6l-15,8.63V231Zm0,17.51V244l-15,8.63v-4.08Zm0,4.37v17.22l-15,8.63V252.89Zm0,17.51v4.07l-15,8.64V270.4Zm76-44.18V200.37l3.53-2v17.21Zm3.53-1.75v4.08l-3.53,2v-4.08Zm-3.53-15.76V196l3.53-2V198Zm0-4.36V178.5l3.53-2v17.22Zm0-17.51v-4.08l3.53-2v4.08Zm0-4.37V156.62l3.53-2V171.8Zm0-17.51v-4.07l3.53-2v4.07Zm0-4.36V134.75l3.53-2v17.22Zm0-17.51v-4.08l3.53-2v4.08Zm0-4.37V112.87l3.53-2v17.22Zm0-17.51v-4.07l3.53-2v4.07Zm0-4.37V91l3.53-2v17.22Zm0-17.5V86.63l3.53-2v4.08ZM344.64,226.34V209.13l14.91-8.61v17.22ZM359.55,218v4.07l-14.91,8.61v-4.08Zm-14.91-9.2v-4.07l14.91-8.61v4.08Zm0-4.36V187.25l14.91-8.61v17.22Zm0-17.51v-4.08l14.91-8.6v4.07Zm0-4.37V165.38l14.91-8.61V174Zm0-17.51V161l14.91-8.61v4.08Zm0-4.36V143.5l14.91-8.61v17.22Zm0-17.51v-4.08l14.91-8.6v4.07Zm0-4.37V121.62l14.91-8.6v17.22Zm0-17.51v-4.07l14.91-8.61v4.08Zm0-4.36V99.75l14.91-8.61v17.22Zm0-17.51V95.38l14.91-8.6v4.07Zm0-4.37V77.86l14.91-8.6V86.48Zm-3.78,133.44V211.31l3.53-2v17.22Zm3.53-1.75v4.08l-3.53,2v-4.07ZM340.86,211v-4.08l3.53-2V209Zm0-4.37V189.43l3.53-2v17.21Zm0-17.51v-4.07l3.53-2v4.07Zm0-4.36V167.56l3.53-2v17.22Zm0-17.51v-4.08l3.53-2v4.08Zm0-4.37V145.68l3.53-2v17.22Zm0-17.51v-4.07l3.53-2v4.07Zm0-4.36V123.81l3.53-2V139Zm0-17.51v-4.08l3.53-2v4.08Zm0-4.37V101.93l3.53-2v17.22Zm0-17.51V97.57l3.53-2V99.6Zm0-4.37V80.05l3.53-2V95.24Zm-15.16,140V220.06l14.91-8.61v17.22ZM340.61,229V233l-14.91,8.61v-4.08Zm-14.91-9.19v-4.08l14.91-8.6v4.07Zm0-4.37V198.19l14.91-8.61V206.8Zm0-17.51v-4.07l14.91-8.61v4.08Zm0-4.36V176.31l14.91-8.61v17.22Zm0-17.51v-4.08l14.91-8.6v4.07Zm0-4.37V154.43l14.91-8.6v17.22Zm0-17.51v-4.07l14.91-8.61v4.08Zm0-4.36V132.56L340.61,124v17.22Zm0-17.51v-4.08l14.91-8.6v4.07Zm0-4.37V110.68l14.91-8.6V119.3Zm0-17.51v-4.07l14.91-8.61v4.08Zm0-4.36V88.8l14.91-8.61V97.42Zm-3.78,133.43V222.24l3.53-2v17.21Zm3.53-1.74v4.07l-3.53,2v-4.08ZM321.92,222v-4.07l3.53-2v4.08Zm0-4.36V200.37l3.53-2v17.22Zm0-17.51V196l3.53-2V198Zm0-4.37V178.49l3.53-2v17.21Zm0-17.51v-4.07l3.53-2v4.07Zm0-4.36V156.62l3.53-2V171.8Zm0-17.51v-4.08l3.53-2v4.08Zm0-4.37V134.74l3.53-2v17.22Zm0-17.51v-4.07l3.53-2v4.07Zm0-4.36V112.87l3.53-2v17.22Zm0-17.51V108.5l3.53-2v4.08Zm0-4.37V91l3.53-2v17.23Zm-15.16,140V231l14.91-8.61v17.22Zm14.91-8.31V244l-14.91,8.61v-4.07Zm-14.91-9.19v-4.08L321.67,218v4.08Zm0-4.37V209.12l14.91-8.61v17.22Zm0-17.51v-4.08l14.91-8.6v4.07Zm0-4.37V187.25l14.91-8.61v17.22Zm0-17.5v-4.08l14.91-8.61v4.08Zm0-4.37V165.37l14.91-8.61V174Zm0-17.51V161l14.91-8.6v4.07Zm0-4.37V143.49l14.91-8.6v17.22Zm0-17.51v-4.07l14.91-8.61v4.08Zm0-4.36V121.62L321.67,113v17.22Zm0-17.51v-4.08l14.91-8.6v4.07Zm0-4.37V99.73l14.91-8.6v17.23ZM303,250.4V233.18l3.53-2v17.22Zm3.53-1.75v4.08l-3.53,2v-4.07ZM303,232.89v-4.08l3.53-2v4.08Zm0-4.37V211.3l3.53-2v17.21ZM303,211v-4.07l3.53-2V209Zm0-4.36V189.43l3.53-2v17.22Zm0-17.51v-4.08l3.53-2v4.08Zm0-4.37V167.55l3.53-2v17.21Zm0-17.51v-4.07l3.53-2v4.07Zm0-4.36V145.68l3.53-2v17.22Zm0-17.51v-4.08l3.53-2v4.08Zm0-4.37V123.8l3.53-2V139Zm0-17.51v-4.07l3.53-2v4.07Zm0-4.36V101.92l3.53-2v17.23Zm-15.16,140V241.93l14.91-8.61v17.22Zm14.91-8.32v4.08l-14.91,8.61v-4.08Zm-14.91-9.19v-4.07L302.73,229V233Zm0-4.37V220.06l14.91-8.61v17.22Zm0-17.5v-4.08l14.91-8.61v4.08Zm0-4.37V198.18l14.91-8.61v17.22Zm0-17.51v-4.08l14.91-8.6v4.07Zm0-4.37V176.31l14.91-8.61v17.22Zm0-17.51v-4.07l14.91-8.61v4.08Zm0-4.36V154.43l14.91-8.61V163Zm0-17.51v-4.08l14.91-8.6v4.07Zm0-4.37V132.56L302.73,124v17.22Zm0-17.51v-4.07l14.91-8.61v4.08Zm0-4.36V110.67l14.91-8.61v17.23ZM284,261.33V244.11l3.53-2v17.21Zm3.53-1.74v4.07l-3.53,2v-4.08ZM284,243.82v-4.07l3.53-2v4.08Zm0-4.36V222.24l3.53-2v17.22ZM284,222v-4.08l3.53-2v4.07Zm0-4.37V200.36l3.53-2v17.21Zm0-17.51V196l3.53-2V198Zm0-4.36V178.49l3.53-2v17.22Zm0-17.51v-4.08l3.53-2v4.08Zm0-4.37V156.61l3.53-2v17.21Zm0-17.51v-4.07l3.53-2v4.07Zm0-4.36V134.74l3.53-2v17.22Zm0-17.51v-4.08l3.53-2v4.08Zm0-4.37V112.85l3.53-2V128ZM287.57,264v17.23l-3.53,2V266Zm.25-.14,14.91-8.61v17.22L287.82,281ZM303,255.05l3.53-2v17.22l-3.53,2Zm3.78-2.18,14.91-8.61v17.23l-14.91,8.61Zm15.16-8.75,3.53-2v17.23l-3.53,2Zm3.78-2.18,14.91-8.61v17.22l-14.91,8.61Zm15.16-8.76,3.53-2v17.22l-3.53,2Zm3.78-2.18,14.91-8.61v17.23l-14.91,8.61Zm15.16-8.75,3.53-2v17.23l-3.53,2Zm0-135.91V69.11l3.53-2V84.3Zm3.78,129.36,14.92-8.61v4.07l-14.92,8.61Zm0-.29V198.19l14.92-8.61V206.8Zm0-17.51v-4.08l14.92-8.61v4.08Zm0-4.37V176.32l14.92-8.62v17.22Zm0-17.51V172l14.92-8.61v4.07Zm0-4.36V154.44l14.92-8.61v17.22Zm0-17.51v-4.08l14.92-8.61v4.08Zm0-4.37V132.56L378.5,124v17.22Zm0-17.51V128.2l14.92-8.61v4.07Zm0-4.36V110.69l14.92-8.61V119.3Zm0-17.51v-4.08l14.92-8.61v4.08Zm0-4.37V88.81L378.5,80.2V97.42Zm0-17.51V84.45l14.92-8.61v4.07ZM283.79,113v17.23l-14.92,8.61V121.61Zm-15,161.77,15-8.64v17.23l-15,8.64Zm94.75-37.48V220.07l14.92-8.62v17.23Z" style="fill:#e0e0e0"></path><g style="opacity:0.25"><polygon points="268.88 121.61 321.67 91.13 321.67 261.49 268.87 291.97 268.88 121.61" style="fill:#3592FF"></polygon><polygon points="325.7 88.8 340.61 80.19 340.61 250.55 325.7 259.16 325.7 88.8" style="fill:#3592FF"></polygon><polygon points="344.64 77.86 378.5 58.32 378.5 228.68 344.64 248.23 344.64 77.86" style="fill:#3592FF"></polygon></g></g></g><g id="freepik--Tools--inject-5"><g id="freepik--Arrow--inject-5"><path d="M173.76,54.05,152.59,28.69a1.49,1.49,0,0,0-.38-.35l-6.27-3.64c-.43-.25-.75.08-.75.92l-.11,51.25c0,.44.07.69.19.75l6.27,3.65c.17.1.44-.18.74-.83l3-6.48,1.52,5.44a1,1,0,0,0,.4.6c.42.26,6.07,3.51,6.26,3.61.41.24,1,0,1.62-.66L168,79.58a4.38,4.38,0,0,0,1.07-3.52l-4-14.29a2.57,2.57,0,0,1,1.68-2.72l5.93-2.68C173.92,55.83,174.38,54.79,173.76,54.05Z" style="fill:#3592FF"></path><path d="M173.76,54.05,152.59,28.69a1.49,1.49,0,0,0-.38-.35l-6.27-3.64c-.43-.25-.75.08-.75.92l-.11,51.25c0,.44.07.69.19.75l6.27,3.65c.17.1.44-.18.74-.83l3-6.48,1.52,5.44a1,1,0,0,0,.4.6c.42.26,6.07,3.51,6.26,3.61.41.24,1,0,1.62-.66L168,79.58a4.38,4.38,0,0,0,1.07-3.52l-4-14.29a2.57,2.57,0,0,1,1.68-2.72l5.93-2.68C173.92,55.83,174.38,54.79,173.76,54.05Z" style="fill:#3592FF"></path><path d="M173.76,54.05,152.59,28.69a1.49,1.49,0,0,0-.38-.35l-6.27-3.64c-.43-.25-.75.08-.75.92l-.11,51.25c0,.44.07.69.19.75l6.27,3.65c.17.1.44-.18.74-.83l3-6.48,1.52,5.44a1,1,0,0,0,.4.6c.42.26,6.07,3.51,6.26,3.61.41.24,1,0,1.62-.66L168,79.58a4.38,4.38,0,0,0,1.07-3.52l-4-14.29a2.57,2.57,0,0,1,1.68-2.72l5.93-2.68C173.92,55.83,174.38,54.79,173.76,54.05Z" style="fill:#fff;opacity:0.4"></path><path d="M151.35,80.52l.12-51.26c0-1.06.5-1.32,1.12-.57l21.17,25.36c.62.74.16,1.78-1,2.32l-5.93,2.68a2.57,2.57,0,0,0-1.68,2.72l4,14.29A4.38,4.38,0,0,1,168,79.58L165.11,83c-.86,1-1.77,1-2,0l-4-14.29c-.27-1-.91-.84-1.42.26l-5.37,11.47C151.77,81.54,151.35,81.58,151.35,80.52Z" style="fill:#3592FF"></path><path d="M151.35,80.52l.12-51.26c0-1.06.5-1.32,1.12-.57l21.17,25.36c.62.74.16,1.78-1,2.32l-5.93,2.68a2.57,2.57,0,0,0-1.68,2.72l4,14.29A4.38,4.38,0,0,1,168,79.58L165.11,83c-.86,1-1.77,1-2,0l-4-14.29c-.27-1-.91-.84-1.42.26l-5.37,11.47C151.77,81.54,151.35,81.58,151.35,80.52Z" style="fill:#fff;opacity:0.8"></path><path d="M163.4,83.56c-.64-.37-5.78-3.32-6.17-3.56a.94.94,0,0,1-.4-.6L155.31,74l2.34-5c.51-1.1,1.15-1.22,1.42-.26l4,14.29A1,1,0,0,0,163.4,83.56Z" style="opacity:0.15"></path></g><g id="freepik--Pentool--inject-5"><path d="M439,171a4.6,4.6,0,0,0-1.91,3.66c0,1.26.68,1.91,1.58,1.6v26.66L429,182.49a1.71,1.71,0,0,1,0-1.24,61.78,61.78,0,0,0,4.88-18.64,1.51,1.51,0,0,1,.66-1l9.07-5.24a.41.41,0,0,1,.66.34c.61,5.68,2.35,9.89,4.7,12.72a1.4,1.4,0,0,1,.25,1.17c-1.36,4.44-9.23,30-9.81,31.91V175.83a4.75,4.75,0,0,0,1.58-3.42C441,171,440.1,170.35,439,171Z" style="fill:#3592FF"></path><path d="M453.64,173.15l-9.81,31.91-.67-.39v.77l-4.45-2.56L429,182.49a1.71,1.71,0,0,1,0-1.24,61.78,61.78,0,0,0,4.88-18.64,1.51,1.51,0,0,1,.66-1l9.07-5.24a1.31,1.31,0,0,1,1.19,0l3.26,1.88a1.5,1.5,0,0,1,.66,1c.61,5.67,2.34,9.89,4.7,12.72A1.4,1.4,0,0,1,453.64,173.15Z" style="fill:#3592FF"></path><path d="M453.64,173.15l-9.81,31.91-.67-.39v.77l-4.45-2.56L429,182.49a1.71,1.71,0,0,1,0-1.24,61.78,61.78,0,0,0,4.88-18.64,1.51,1.51,0,0,1,.66-1l9.07-5.24a1.31,1.31,0,0,1,1.19,0l3.26,1.88a1.5,1.5,0,0,1,.66,1c.61,5.67,2.34,9.89,4.7,12.72A1.4,1.4,0,0,1,453.64,173.15Z" style="fill:#fff;opacity:0.4"></path><path d="M445.41,175a4.8,4.8,0,0,1-1.58,3.42v26.66l-.67-.39V178.79c-.9.3-1.58-.34-1.58-1.6a4.58,4.58,0,0,1,1.91-3.66C444.55,172.92,445.41,173.57,445.41,175Z" style="opacity:0.15"></path><path d="M453.64,173.15l-9.81,31.91V178.4a4.8,4.8,0,0,0,1.58-3.42c0-1.41-.86-2.06-1.92-1.45a4.58,4.58,0,0,0-1.91,3.66c0,1.26.68,1.9,1.58,1.6v26.65l-9.72-20.38a1.71,1.71,0,0,1,0-1.24,62.15,62.15,0,0,0,4.88-18.64,1.48,1.48,0,0,1,.66-1l9.07-5.24a.41.41,0,0,1,.66.34c.61,5.67,2.34,9.89,4.7,12.72A1.4,1.4,0,0,1,453.64,173.15Z" style="fill:#3592FF"></path><g style="opacity:0.8"><path d="M453.64,173.15l-9.81,31.91V178.4a4.8,4.8,0,0,0,1.58-3.42c0-1.41-.86-2.06-1.92-1.45a4.58,4.58,0,0,0-1.91,3.66c0,1.26.68,1.9,1.58,1.6v26.65l-9.72-20.38a1.71,1.71,0,0,1,0-1.24,62.15,62.15,0,0,0,4.88-18.64,1.48,1.48,0,0,1,.66-1l9.07-5.24a.41.41,0,0,1,.66.34c.61,5.67,2.34,9.89,4.7,12.72A1.4,1.4,0,0,1,453.64,173.15Z" style="fill:#fff"></path></g><path d="M448.67,159.16a.39.39,0,0,0-.64-.24L439,164.16a1.32,1.32,0,0,0-.46.5L434,162.09a1.4,1.4,0,0,1,.46-.5l9.08-5.24a1.31,1.31,0,0,1,1.19,0l3.26,1.88A1.51,1.51,0,0,1,448.67,159.16Z" style="opacity:0.15"></path><path d="M431.86,153.45l14.37-8.3a1.31,1.31,0,0,1,1.19,0l3.26,1.89a1.27,1.27,0,0,1,.59,1v6.33a1.3,1.3,0,0,1-.59,1l-14.38,8.3a1.29,1.29,0,0,1-1.18,0l-3.26-1.88a1.3,1.3,0,0,1-.59-1v-6.33A1.3,1.3,0,0,1,431.86,153.45Z" style="fill:#37474f"></path><path d="M451.27,148c0-.31-.29-.42-.59-.25L436.31,156a1.11,1.11,0,0,0-.42.44l-4.45-2.56a1.22,1.22,0,0,1,.42-.45l14.37-8.3a1.31,1.31,0,0,1,1.19,0l3.26,1.89A1.32,1.32,0,0,1,451.27,148Z" style="fill:#455a64"></path><path d="M436.21,163.77h0l0,0-.06,0h-.12l-.1,0a1.25,1.25,0,0,1-.72-.14l-3.26-1.88a1.32,1.32,0,0,1-.6-1v-6.33a1.16,1.16,0,0,1,.18-.58l4.45,2.56a1.22,1.22,0,0,0-.18.59v6.33c0,.27.14.42.33.42h.08Z" style="fill:#263238"></path><path d="M443.16,205.44l-4.45-2.56L429,182.49a1.54,1.54,0,0,1-.12-.56l4.44,2.57a1.59,1.59,0,0,0,.13.56Z" style="opacity:0.15"></path><path d="M443.83,178.4v26.66l-.67-.39V178.79c-.9.3-1.58-.34-1.58-1.6v-.09Z" style="opacity:0.15"></path><path d="M464.38,170.73c0-.72-.51-1-1.14-.65a2.5,2.5,0,0,0-1.14,2c0,.59.34.89.8.79-.64,13.39-10,29.17-21.45,35.77-5.68,3.28-11,3.82-15,1.52-3.77-2.18-5.94-6.65-6.17-12.67a2.53,2.53,0,0,0,.81-1.72c0-.72-.51-1-1.13-.66a2.53,2.53,0,0,0-1.14,2c0,.62.37.92.87.77.31,6.06,2.57,10.59,6.45,12.83a11.4,11.4,0,0,0,5.79,1.49,20,20,0,0,0,9.82-3c11.69-6.76,21.26-23,21.76-36.64A2.52,2.52,0,0,0,464.38,170.73Z" style="fill:#455a64"></path><path d="M463.24,195.12a2.53,2.53,0,0,0-1.09,1.59L421,220.44c-.14-.44-.57-.58-1.07-.29a2.5,2.5,0,0,0-1.14,2c0,.72.51,1,1.14.65a2.57,2.57,0,0,0,1.1-1.65l41.08-23.71c.13.47.57.63,1.09.33a2.5,2.5,0,0,0,1.14-2C464.38,195.05,463.87,194.76,463.24,195.12Z" style="fill:#455a64"></path><path d="M421.55,196.37a1.62,1.62,0,0,1-3.23,0,1.62,1.62,0,1,1,3.23,0Z" style="fill:#455a64"></path><circle cx="419.88" cy="221.43" r="1.61" style="fill:#455a64"></circle><path d="M465,196.47a1.62,1.62,0,1,1-1.62-1.61A1.62,1.62,0,0,1,465,196.47Z" style="fill:#455a64"></path><circle cx="463.18" cy="171.36" r="1.61" style="fill:#455a64"></circle></g><g id="freepik--text-tool--inject-5"><path d="M459.15,269.34v18.3l-1.67.92v-5.77c0-3.1-2.53-4.16-5.65-2.36l-7.77,4.48v33c0,3.61,2.21,5.26,4.93,3.69l4.82-2.78.05,0,5.29,3-26.42,15.25L429.17,335l-1.72,1v-2l4.87-2.81c2.72-1.58,4.93-5.77,4.93-9.38v-33l-7.77,4.48c-3.12,1.8-5.65,5.79-5.65,8.9V308l-1.66,1v-18.3Z" style="fill:#3592FF"></path><path d="M459.15,269.34v18.3l-1.67.92v-5.77c0-3.1-2.53-4.16-5.65-2.36l-7.77,4.48v33c0,3.61,2.21,5.26,4.93,3.69l4.82-2.78.05,0,5.29,3-26.42,15.25L429.17,335l-1.72,1v-2l4.87-2.81c2.72-1.58,4.93-5.77,4.93-9.38v-33l-7.77,4.48c-3.12,1.8-5.65,5.79-5.65,8.9V308l-1.66,1v-18.3Z" style="fill:#fff;opacity:0.2"></path><polygon points="462.77 291.62 457.49 288.56 457.49 279.45 462.77 280.45 462.77 291.62" style="fill:#3592FF"></polygon><path d="M464.43,272.39v18.3l-1.66.92v-5.77c0-3.11-2.53-4.16-5.66-2.36L449.35,288v33c0,3.6,2.2,5.25,4.93,3.68l4.87-2.81v2l-26.42,15.25v-2l4.87-2.81c2.73-1.58,4.93-5.77,4.93-9.38v-33l-7.76,4.48c-3.13,1.8-5.66,5.79-5.66,8.9v5.77l-1.66,1v-18.3Z" style="fill:#3592FF"></path><path d="M464.43,272.39v18.3l-1.66.92v-5.77c0-3.11-2.53-4.16-5.66-2.36L449.35,288v33c0,3.6,2.2,5.25,4.93,3.68l4.87-2.81v2l-26.42,15.25v-2l4.87-2.81c2.73-1.58,4.93-5.77,4.93-9.38v-33l-7.76,4.48c-3.13,1.8-5.66,5.79-5.66,8.9v5.77l-1.66,1v-18.3Z" style="fill:#fff;opacity:0.5"></path><polygon points="459.15 269.34 464.43 272.39 427.45 293.74 422.17 290.69 459.15 269.34" style="fill:#3592FF"></polygon><polygon points="459.15 269.34 464.43 272.39 427.45 293.74 422.17 290.69 459.15 269.34" style="fill:#fff;opacity:0.7000000000000001"></polygon><polygon points="422.17 290.69 427.45 293.74 427.45 312.04 422.17 308.99 422.17 290.69" style="fill:#3592FF"></polygon><polygon points="422.17 290.69 427.45 293.74 427.45 312.04 422.17 308.99 422.17 290.69" style="fill:#fff;opacity:0.2"></polygon><polygon points="427.45 334.04 432.73 337.09 432.73 339.07 427.45 336.02 427.45 334.04" style="fill:#3592FF"></polygon></g></g><g id="freepik--golden-ratio-box--inject-5"><g id="freepik--golden-ratio-box--inject-5"><g id="freepik--Box--inject-5"><polygon points="37.13 79.54 124.55 29.06 124.55 105.31 37.08 155.81 37.13 79.54" style="fill:#fff"></polygon><path d="M124.22,29.63v75.48L37.41,155.24l.05-75.51,86.76-50.1m.66-1.15L36.8,79.35l0,77,88.13-50.89v-77Z" style="fill:#3592FF"></path><polygon points="36.8 79.35 34.04 77.76 122.11 26.89 124.88 28.48 36.8 79.35" style="fill:#3592FF"></polygon><polygon points="36.8 79.35 34.04 77.76 122.11 26.89 124.88 28.48 36.8 79.35" style="fill:#fff;opacity:0.4"></polygon><polygon points="36.8 79.35 36.75 156.39 34.07 154.84 34.04 77.76 36.75 79.32 36.8 79.35" style="fill:#3592FF"></polygon></g><g id="freepik--golden-ratio--inject-5"><path d="M71.52,129.56V66.92l.06,0,47-27.11v62.64l-.06,0Zm.24-62.51v62.09l46.54-26.87V40.19Z" style="fill:#3592FF"></path><path d="M42.62,146.24V83.6l.06,0L71.76,66.78v62.64l-.06,0Zm.24-62.5v62.08l28.66-16.54V67.19Z" style="fill:#3592FF"></path><path d="M42.62,122.41V83.6l.06,0L71.76,66.78v38.81l-.06,0Zm.24-38.67V122l28.66-16.55V67.19Z" style="fill:#3592FF"></path><path d="M42.62,146.24V122.13l.06,0,18.06-10.42v24.1l-.06,0Zm.24-24v23.55l17.63-10.18V112.1Z" style="fill:#3592FF"></path><path d="M60.49,135.92v-15l.07,0,11.2-6.47v15l-.06,0Zm.25-14.84v14.43l10.78-6.23V114.85Z" style="fill:#3592FF"></path><path d="M64.68,118.8v-9.4l.06,0,7-4v9.4l-.06,0Zm.24-9.26v8.84l6.6-3.81v-8.84Z" style="fill:#3592FF"></path><path d="M60.49,117.68v-5.86l.07,0,4.36-2.52v5.86l-.06,0Zm.25-5.72v5.3L64.68,115v-5.3Z" style="fill:#3592FF"></path><path d="M53.72,138a9.57,9.57,0,0,1-4.81-1.26c-4.07-2.35-6.41-7.66-6.41-14.55,0-21.32,13-46.18,29-55.42,11.5-6.64,22.12-7.54,30.69-2.59,10.46,6,16.45,19.94,16.45,38.15h-.48c0-18-5.91-31.78-16.21-37.73-8.42-4.86-18.86-4-30.21,2.58C55.9,76.36,43,101,43,122.2c0,6.72,2.24,11.87,6.16,14.13,3.2,1.84,7.23,1.55,11.34-.82,6.43-3.71,10.91-12.29,10.91-20.87,0-2.5-.83-4.41-2.29-5.25a4.08,4.08,0,0,0-4.19.29,8.86,8.86,0,0,0-4.06,7.79,2.12,2.12,0,0,0,.84,1.9,1.4,1.4,0,0,0,1.44-.1l.24.42a1.88,1.88,0,0,1-1.92.09,2.56,2.56,0,0,1-1.09-2.31,9.33,9.33,0,0,1,4.31-8.21,4.56,4.56,0,0,1,4.67-.29c1.61.93,2.54,3,2.54,5.67,0,8.74-4.59,17.49-11.15,21.28A14.16,14.16,0,0,1,53.72,138Z" style="fill:#455a64"></path></g></g></g><g id="freepik--grid-box--inject-5"><g id="freepik--Grid--inject-5"><g id="freepik--box--inject-5"><polygon points="144.1 337.98 228.97 288.98 228.97 387 144.04 436.03 144.1 337.98" style="fill:#fff"></polygon><path d="M228.57,289.68v97.08l-84.13,48.57.06-97.12,84.07-48.53m.8-1.39L143.7,337.75l-.06,99,85.73-49.49V288.29Z" style="fill:#3592FF"></path><polygon points="143.7 337.75 140.35 335.82 226.02 286.36 229.37 288.29 143.7 337.75" style="fill:#3592FF"></polygon><polygon points="143.7 337.75 140.35 335.82 226.02 286.36 229.37 288.29 143.7 337.75" style="fill:#fff;opacity:0.4"></polygon><polygon points="143.7 337.75 143.64 436.72 140.38 434.84 140.35 335.82 143.7 337.75" style="fill:#3592FF"></polygon></g><path d="M148.17,428.94V340.33l.14-.09L224.91,296v88.61l-.14.08Zm.58-88.27v87.26l75.57-43.63V297Z" style="fill:#e0e0e0"></path><rect x="167.21" y="329.51" width="0.59" height="87.94" style="fill:#e0e0e0"></rect><rect x="186.25" y="318.51" width="0.59" height="87.94" style="fill:#e0e0e0"></rect><rect x="205.28" y="307.52" width="0.59" height="87.94" style="fill:#e0e0e0"></rect><rect x="142.57" y="340.19" width="87.98" height="0.59" transform="translate(-145.18 138.78) rotate(-29.98)" style="fill:#e0e0e0"></rect><rect x="142.56" y="362.18" width="87.98" height="0.59" transform="translate(-156.13 141.67) rotate(-29.97)" style="fill:#e0e0e0"></rect><rect x="142.56" y="384.16" width="87.98" height="0.59" transform="translate(-167.14 144.64) rotate(-29.98)" style="fill:#e0e0e0"></rect><rect x="153.13" y="337.75" width="0.18" height="87.94" style="fill:#e0e0e0"></rect><rect x="157.89" y="335" width="0.18" height="87.94" style="fill:#e0e0e0"></rect><rect x="162.65" y="332.25" width="0.18" height="87.93" style="fill:#e0e0e0"></rect><rect x="172.17" y="326.76" width="0.18" height="87.94" style="fill:#e0e0e0"></rect><rect x="176.93" y="324.01" width="0.18" height="87.94" style="fill:#e0e0e0"></rect><rect x="181.69" y="321.26" width="0.18" height="87.93" style="fill:#e0e0e0"></rect><rect x="191.21" y="315.77" width="0.18" height="87.94" style="fill:#e0e0e0"></rect><rect x="195.97" y="313.02" width="0.18" height="87.94" style="fill:#e0e0e0"></rect><rect x="200.73" y="310.27" width="0.18" height="87.93" style="fill:#e0e0e0"></rect><rect x="210.25" y="304.78" width="0.18" height="87.94" style="fill:#e0e0e0"></rect><rect x="215" y="302.03" width="0.18" height="87.94" style="fill:#e0e0e0"></rect><rect x="219.76" y="299.28" width="0.18" height="87.93" style="fill:#e0e0e0"></rect><polygon points="148.53 346.08 148.44 345.93 224.61 301.98 224.7 302.13 148.53 346.08" style="fill:#e0e0e0"></polygon><polygon points="148.53 351.55 148.44 351.4 224.61 307.45 224.7 307.6 148.53 351.55" style="fill:#e0e0e0"></polygon><polygon points="148.53 357.02 148.44 356.87 224.61 312.92 224.7 313.07 148.53 357.02" style="fill:#e0e0e0"></polygon><polygon points="148.53 368.06 148.44 367.91 224.61 323.95 224.7 324.11 148.53 368.06" style="fill:#e0e0e0"></polygon><polygon points="148.53 373.53 148.44 373.38 224.61 329.43 224.7 329.58 148.53 373.53" style="fill:#e0e0e0"></polygon><polygon points="148.53 379 148.44 378.85 224.61 334.89 224.7 335.05 148.53 379" style="fill:#e0e0e0"></polygon><polygon points="148.53 390.04 148.44 389.89 224.61 345.93 224.7 346.08 148.53 390.04" style="fill:#e0e0e0"></polygon><polygon points="148.53 395.51 148.44 395.36 224.61 351.4 224.7 351.55 148.53 395.51" style="fill:#e0e0e0"></polygon><polygon points="148.53 400.98 148.44 400.83 224.61 356.87 224.7 357.02 148.53 400.98" style="fill:#e0e0e0"></polygon><polygon points="148.53 412.02 148.44 411.86 224.61 367.91 224.7 368.06 148.53 412.02" style="fill:#e0e0e0"></polygon><polygon points="148.53 417.49 148.44 417.33 224.61 373.38 224.7 373.53 148.53 417.49" style="fill:#e0e0e0"></polygon><polygon points="148.53 422.96 148.44 422.81 224.61 378.85 224.7 379 148.53 422.96" style="fill:#e0e0e0"></polygon><polygon points="207.07 328.64 205.58 331.81 204.08 330.37 205.58 327.21 207.07 328.64" style="fill:#e0e0e0"></polygon><polygon points="207.07 350.62 205.58 353.78 204.08 352.34 205.58 349.18 207.07 350.62" style="fill:#e0e0e0"></polygon><polygon points="207.07 372.59 205.58 375.75 204.08 374.31 205.58 371.15 207.07 372.59" style="fill:#e0e0e0"></polygon><polygon points="188.06 339.63 186.57 342.79 185.08 341.35 186.57 338.19 188.06 339.63" style="fill:#e0e0e0"></polygon><polygon points="188.06 361.6 186.57 364.76 185.08 363.32 186.57 360.16 188.06 361.6" style="fill:#e0e0e0"></polygon><polygon points="188.06 383.57 186.57 386.73 185.08 385.3 186.57 382.13 188.06 383.57" style="fill:#e0e0e0"></polygon><polygon points="169.06 350.61 167.56 353.77 166.07 352.34 167.56 349.17 169.06 350.61" style="fill:#e0e0e0"></polygon><polygon points="169.06 372.58 167.56 375.75 166.07 374.31 167.56 371.14 169.06 372.58" style="fill:#e0e0e0"></polygon><polygon points="169.06 394.55 167.56 397.72 166.07 396.28 167.56 393.12 169.06 394.55" style="fill:#e0e0e0"></polygon></g></g><g id="freepik--Pencil--inject-5"><g id="freepik--pencil--inject-5"><path id="freepik--shadow--inject-5" d="M187.19,469.22,199.71,455l122.73-71c3.29-2.25,8.22,2.31,10.14,6.9h0a11.45,11.45,0,0,1,.67,2.14c.37,1.91.05,3.63-1.37,4.6L208.07,469.25l-18.27,3.62-5,1a.69.69,0,0,1-.63-.18.7.7,0,0,1,0-1Z" style="fill:#e0e0e0"></path><g id="freepik--pencil--inject-5"><path d="M316.6,399.54l-1.7,1-2.06,1.19-107.12,62c.64-1.43.14-4.29-1.33-7-1.7-3.2-4.31-5.73-6.2-5.83l106.58-61.7,3.94-2.26C306.24,388.5,314.11,401.12,316.6,399.54Z" style="fill:#455a64"></path><path d="M305,389l3.81-2.18c1.09-.67,3.14,1.28,4.95,3.86,2.4,3.42,4.35,7.94,2.91,8.83l-2.81,1.61-1,.56c1.43-.89-.51-5.42-2.91-8.83-1.73-2.47-3.71-4.37-4.82-3.91h0A.18.18,0,0,0,305,389Z" style="fill:#ebebeb"></path><path d="M305.9,388.5c2.52-1.55,10.37,11.13,7.86,12.69L310,403.38c2.51-1.56-5.34-14.24-7.86-12.68Z" style="fill:#3592FF"></path><path d="M298.46,392.79l3.77-2.17c2.46-1.55,10.15,10.62,8.07,12.56a.45.45,0,0,1-.13.1l-3.81,2.15C308.83,403.83,301,391.21,298.46,392.79Z" style="fill:#ebebeb"></path><path d="M308.71,386.87v0l.05,0c1.08-.69,3.14,1.27,4.94,3.86,2.38,3.35,4.31,7.78,3,8.77l15.9-9.14c1.27-.87,1.57-2.43,1.23-4.15-.88-4.63-6.3-10.52-9.74-8.17Z" style="fill:#f28f8f"></path><path d="M188.05,464.31c1.31,1.78,1.18,2.66,1.18,2.66l16.49-3.25c1.64-2.5.56-6.55-1.7-9.45l-.73.41Z" style="fill:#f28f8f"></path><path d="M184.75,467.85l4.48-.88s.2-.87-1.18-2.66l-3.91,2.48h0a.64.64,0,0,0,0,.9A.66.66,0,0,0,184.75,467.85Z" style="fill:#37474f"></path><path d="M198.21,450.85h0l-11.31,12.83a2.12,2.12,0,0,1,1.17.64l15.24-9.63.73-.41C202.47,452.3,200.37,450.87,198.21,450.85Z" style="fill:#ffa8a7"></path><path d="M188.05,464.31a1.6,1.6,0,0,0-1.17-.64l-2.74,3.12Z" style="fill:#455a64"></path><path d="M204,454.27l128.19-71.92a11.66,11.66,0,0,1,1.6,3.86c.34,1.73,0,3.27-1.24,4.15l-16,9.18-1.7,1-2.06,1.19-107.12,62C207.73,460.62,205.52,456,204,454.27Z" style="opacity:0.2"></path></g></g></g><g id="freepik--text-box--inject-5"><g id="freepik--text-box--inject-5"><g id="freepik--box--inject-5"><polygon points="281.85 191.05 335.02 160.31 335.02 269.35 281.8 300.12 281.85 191.05" style="fill:#fff"></polygon><path d="M334.69,160.89V269.16l-52.56,30.39.05-108.31,52.51-30.35m.66-1.15-53.83,31.12,0,109.83,53.88-31.15V159.74Z" style="fill:#3592FF"></path><polygon points="281.52 190.86 278.76 189.27 332.58 158.15 335.35 159.74 281.52 190.86" style="fill:#3592FF"></polygon><polygon points="281.52 190.86 278.76 189.27 332.58 158.15 335.35 159.74 281.52 190.86" style="fill:#fff;opacity:0.4"></polygon><polygon points="281.52 190.86 281.47 300.69 278.79 299.14 278.76 189.27 281.47 190.83 281.52 190.86" style="fill:#3592FF"></polygon></g><g id="freepik--Text--inject-5"><path d="M290.29,193.28a.49.49,0,0,1-.41-.24.47.47,0,0,1,.17-.66l39.19-22.63a.48.48,0,0,1,.48.84l-39.19,22.62A.4.4,0,0,1,290.29,193.28Z" style="fill:#e0e0e0"></path><path d="M286.38,200.06a.47.47,0,0,1-.42-.24.49.49,0,0,1,.17-.66l43.11-24.88a.47.47,0,0,1,.65.18.46.46,0,0,1-.17.65L286.62,200A.53.53,0,0,1,286.38,200.06Z" style="fill:#e0e0e0"></path><path d="M286.38,204.59a.49.49,0,0,1-.42-.24.48.48,0,0,1,.17-.66l43.11-24.89a.48.48,0,0,1,.48.84l-43.1,24.88A.44.44,0,0,1,286.38,204.59Z" style="fill:#e0e0e0"></path><path d="M286.38,209.11a.47.47,0,0,1-.42-.24.48.48,0,0,1,.17-.66l43.11-24.88a.47.47,0,0,1,.65.17.48.48,0,0,1-.17.66l-43.1,24.89A.53.53,0,0,1,286.38,209.11Z" style="fill:#e0e0e0"></path><path d="M286.38,213.64a.48.48,0,0,1-.42-.25.47.47,0,0,1,.17-.65l43.11-24.89a.48.48,0,0,1,.48.84l-43.1,24.88A.55.55,0,0,1,286.38,213.64Z" style="fill:#e0e0e0"></path><path d="M286.38,218.16a.49.49,0,0,1-.42-.24.48.48,0,0,1,.17-.66l27.42-15.83a.48.48,0,1,1,.48.84L286.62,218.1A.53.53,0,0,1,286.38,218.16Z" style="fill:#e0e0e0"></path><path d="M290.29,220.42a.48.48,0,0,1-.42-.24.49.49,0,0,1,.18-.66l39.19-22.62a.47.47,0,0,1,.65.18.48.48,0,0,1-.17.66l-39.19,22.62A.48.48,0,0,1,290.29,220.42Z" style="fill:#e0e0e0"></path><path d="M286.38,227.21A.49.49,0,0,1,286,227a.48.48,0,0,1,.17-.66l43.11-24.89a.48.48,0,0,1,.48.84l-43.1,24.88A.44.44,0,0,1,286.38,227.21Z" style="fill:#e0e0e0"></path><path d="M286.38,231.73a.47.47,0,0,1-.42-.24.49.49,0,0,1,.17-.66L329.24,206a.48.48,0,0,1,.48.83l-43.1,24.89A.53.53,0,0,1,286.38,231.73Z" style="fill:#e0e0e0"></path><path d="M286.38,236.26A.49.49,0,0,1,286,236a.48.48,0,0,1,.17-.66l43.11-24.89a.48.48,0,0,1,.48.84l-43.1,24.88A.44.44,0,0,1,286.38,236.26Z" style="fill:#e0e0e0"></path><path d="M286.38,240.78a.49.49,0,0,1-.42-.24.48.48,0,0,1,.17-.66L329.24,215a.47.47,0,0,1,.65.17.48.48,0,0,1-.17.66l-43.1,24.89A.53.53,0,0,1,286.38,240.78Z" style="fill:#e0e0e0"></path><path d="M286.38,245.31a.48.48,0,0,1-.42-.25.47.47,0,0,1,.17-.65l35.27-20.36a.48.48,0,0,1,.66.17.49.49,0,0,1-.18.66l-35.26,20.36A.55.55,0,0,1,286.38,245.31Z" style="fill:#e0e0e0"></path><path d="M290.3,247.57a.49.49,0,0,1-.42-.24.47.47,0,0,1,.17-.66l39.19-22.62a.47.47,0,0,1,.65.17.48.48,0,0,1-.17.66L290.54,247.5A.44.44,0,0,1,290.3,247.57Z" style="fill:#e0e0e0"></path><path d="M286.38,254.35a.47.47,0,0,1-.42-.24.49.49,0,0,1,.17-.66l43.11-24.88a.47.47,0,0,1,.65.18.48.48,0,0,1-.17.66l-43.1,24.88A.53.53,0,0,1,286.38,254.35Z" style="fill:#e0e0e0"></path><path d="M286.38,258.88a.49.49,0,0,1-.42-.24.48.48,0,0,1,.17-.66l43.11-24.89a.48.48,0,0,1,.48.84l-43.1,24.88A.44.44,0,0,1,286.38,258.88Z" style="fill:#e0e0e0"></path><path d="M286.38,263.4a.47.47,0,0,1-.42-.24.48.48,0,0,1,.17-.66l43.11-24.88a.48.48,0,0,1,.48.83l-43.1,24.89A.53.53,0,0,1,286.38,263.4Z" style="fill:#e0e0e0"></path><path d="M286.38,267.93a.49.49,0,0,1-.42-.24.48.48,0,0,1,.17-.66l43.11-24.89a.48.48,0,0,1,.48.84l-43.1,24.88A.44.44,0,0,1,286.38,267.93Z" style="fill:#e0e0e0"></path><path d="M286.38,272.45a.49.49,0,0,1-.42-.24.48.48,0,0,1,.17-.66l19.6-11.31a.48.48,0,0,1,.66.18.49.49,0,0,1-.18.66l-19.59,11.31A.53.53,0,0,1,286.38,272.45Z" style="fill:#e0e0e0"></path><path d="M290.29,274.71a.47.47,0,0,1-.41-.24.48.48,0,0,1,.17-.66l39.19-22.62a.47.47,0,0,1,.65.18.48.48,0,0,1-.17.66l-39.18,22.62A.54.54,0,0,1,290.29,274.71Z" style="fill:#e0e0e0"></path><path d="M286.38,281.5a.49.49,0,0,1-.42-.24.48.48,0,0,1,.17-.66l43.11-24.89a.48.48,0,0,1,.48.84l-43.1,24.88A.44.44,0,0,1,286.38,281.5Z" style="fill:#e0e0e0"></path><path d="M286.38,286a.47.47,0,0,1-.42-.24.49.49,0,0,1,.17-.66l43.11-24.88a.47.47,0,0,1,.65.18.48.48,0,0,1-.17.66L286.62,286A.53.53,0,0,1,286.38,286Z" style="fill:#e0e0e0"></path><path d="M286.38,290.55a.49.49,0,0,1-.42-.24.48.48,0,0,1,.17-.66l43.11-24.89a.48.48,0,0,1,.48.84l-43.1,24.88A.44.44,0,0,1,286.38,290.55Z" style="fill:#e0e0e0"></path></g></g></g><g id="freepik--Picture--inject-5"><g id="freepik--Image--inject-5"><polygon points="281.85 131.37 335.02 100.64 335.02 147.81 281.8 178.58 281.85 131.37" style="fill:#fff"></polygon><polygon points="286.63 134.16 330.19 108.99 330.19 145.03 286.63 170.21 286.63 134.16" style="fill:#3592FF"></polygon><polygon points="288.08 134.99 328.75 111.5 328.75 144.19 288.08 167.71 288.08 134.99" style="fill:#3592FF"></polygon><polygon points="286.63 134.16 330.19 108.99 330.19 145.03 286.63 170.21 286.63 134.16" style="fill:#fff;opacity:0.8"></polygon><polygon points="288.08 157.57 299.7 134.88 314.22 147.11 311.04 142.67 319.98 130.28 328.75 134.27 328.75 144.19 288.08 167.71 288.08 157.57" style="fill:#3592FF"></polygon><path d="M317.72,120.45c1.47-.84,2.66-.16,2.66,1.53a5.86,5.86,0,0,1-2.66,4.6c-1.46.85-2.65.16-2.65-1.53A5.89,5.89,0,0,1,317.72,120.45Z" style="fill:#3592FF"></path><path d="M334.69,101.21v46.41L282.13,178l.05-46.44,52.51-30.35m.66-1.15-53.83,31.12,0,48L335.35,148V100.06Z" style="fill:#3592FF"></path><polygon points="281.52 131.18 278.76 129.59 332.58 98.47 335.35 100.06 281.52 131.18" style="fill:#3592FF"></polygon><polygon points="281.52 131.18 278.76 129.59 332.58 98.47 335.35 100.06 281.52 131.18" style="fill:#fff;opacity:0.4"></polygon><polygon points="281.52 131.18 281.47 179.15 278.79 177.6 278.76 129.59 281.47 131.15 281.52 131.18" style="fill:#3592FF"></polygon></g></g><g id="freepik--Character--inject-5"><g id="freepik--character--inject-5"><g id="freepik--Bottom--inject-5"><path d="M350.51,416.6c2.23-1.86,4.08-2.65,4.5-1.33s-.06,5.24-.06,5.24l-1,3.63v3.23s-.66,2-.69,2.1-2.62-5.12-2.62-5.12S347.37,418.52,350.51,416.6Z"></path><path d="M410.15,408.59s-15-22.5-22.67-36c-5.68-10-6.21-11.91-7.65-18.47C376.72,340,376,336.74,376,336.74l-4,28.6c.74,3.09,2.22,9.21,2.33,12.81a142.83,142.83,0,0,1-1.41,21.07,223.83,223.83,0,0,1-4,23.38c-1.08.79-4.24,1-7,.93a31.79,31.79,0,0,1-7.89-1.39s-2.73-33.6-3.39-42.84c-.79-11.1-1.07-15.46-1.49-21.55-.67-9.7-2.15-23.74-2-41.59.27-35.5,7.81-51.81,7.81-51.81l43.1-.28c1.46,4.76,6.94,9.25,7.32,23.67.1,3.71-1.61,11.08-1.6,16.83,0,18.65-1.21,48-1.21,48,4.37,4,7.58,7.62,10.69,17,1.89,5.68,7.83,23.81,9.59,28.89C416.91,400.23,410.15,408.59,410.15,408.59Z" style="fill:#455a64"></path><path d="M369.84,281.82l1.06-.06c.32,6.48,1.15,13.88,1.92,14.53,1.35,1.13,6.61,2.43,7.83,2.23s2.38-1.09,4.77-3.84c1.69-1.93,1.65-3.23,1.56-6.08,0-1.07-1-7.19-1.14-8.7l1-.12c.35,1.87,1.15,7.72,1.18,8.77.09,2.87.15,4.6-1.83,6.87-2.59,3-3.85,3.95-5.4,4.19a3.59,3.59,0,0,1-.68,0c-2.12-.09-6.63-1.36-8-2.48C370.66,295.89,370,285.1,369.84,281.82Z" style="fill:#37474f"></path><path d="M405,293.31c.05-.37.1-.73.14-1.09-2-.29-4.56-.92-5.47-1.59s-2-7.11-3.36-13.56l-.9.48c.89,3.51,2.07,12.82,3.65,14C400,292.28,402.73,293,405,293.31Z" style="fill:#37474f"></path><path d="M355.26,269.46l1,.29c-2.84,10.94-3.26,20.71,2.11,23.67.42-3.56.28-2.88.9-6.59.66-4,2-11.13,2.87-15.35l1,.24c-.9,4.14-2.3,11.2-2.84,15.11-2.8,20.46-5.11,49.16-4.18,70.06.85,18.89,2.45,51.36,3.2,66.42l-1.06-.16c-.75-15.16-2.35-47.41-3.19-66.21-.43-9.63-.05-23.45.79-36.51.63-9.72,1.57-19,2.35-25.85C352.11,291.51,352.22,281.2,355.26,269.46Z" style="fill:#37474f"></path><path d="M354.57,264.07l-2.4,8.95s11.41,5.24,23.29,4.45,20-3.33,25.3-8l-2.65-5.39Z" style="fill:#37474f"></path><path d="M385.16,306.45c.3,14.62,3.5,41.77,5.26,49.85,1.5,6.93,19.12,37.39,24.77,47l-.8.74c-5.58-9.51-23.43-40.31-25-47.54-1.76-8.12-5-35.38-5.29-50.06Z" style="fill:#37474f"></path><path d="M390.21,274.6c4,8.78,4.75,17.29,1.41,25.66l-1-.42c3.18-8,1.82-16.87-1.48-24.85Z" style="fill:#37474f"></path><path d="M376,336.74l3.87-30s11.05-1.73,12.43-12.32c.35,6.27-2,11.69-8.87,14.69l-5.12,27.7,1.52,17.31Z" style="fill:#37474f"></path><path d="M329,439.8c-.65-.07-.56,2.49-.33,3.34s2.88,3.65,7.64,4.68,12-.07,14.84-.17,5.57,1.26,9.51,1.78c3.5.47,8.25-.44,9.9-2.08a3.4,3.4,0,0,0,.68-2.72c0-1.89-.21-2.27-.43-2.26Z" style="fill:#263238"></path><path d="M370.89,438.12a16.67,16.67,0,0,1,.05,5.55c-.6,1.4-2.42,2.17-3.69,2.55-3.35,1-5.9.81-9.59,0a27.67,27.67,0,0,0-7.27-.82c-2.91.15-6.93.65-9.84.33a23.67,23.67,0,0,1-7.21-1.61c-1.93-.88-3.81-2-4.33-4a6.68,6.68,0,0,1,3.77-6.59c2.14-1.21,4.91-1.25,7.35-1.47,3-.26,4.16-.06,7.2-.91,1.61-.45,3.9.22,4.64-1.63.87-2.18.12-6.31.43-8.6a1.34,1.34,0,0,1,.45-1c.44-.3,1,0,1.44.32a14.67,14.67,0,0,0,6.73,2.33c6.55.82,8.32-1.6,8.32-1.6l.31-1.43s1.43.24.94,3.46a45.41,45.41,0,0,0-.64,8.06A27.71,27.71,0,0,0,370.89,438.12Z" style="fill:#37474f"></path><path d="M341.26,432c-2.3,1.11-1.59,5.36-1.59,5.36a20.81,20.81,0,0,0,7.65-.2c4.32-1.19,6.12-4.27,6-8s-2.65-8.07-3.34-9.52a2.37,2.37,0,0,1,.54-3.07,3.48,3.48,0,0,0-1.41,4.71c.69,1.76,1.85,5.36,1.49,6.82S346.79,431.46,341.26,432Z" style="fill:#263238"></path><path d="M409.7,407.16c-1.18,2-2.56,3.48,1.3,5.77,3,1.77,3.24,3.35,4.26,5.37s1.1,6.28,1.1,6.28,4.42-8.06,2.67-12.92S409.7,407.16,409.7,407.16Z" style="fill:#263238"></path><path d="M425.18,401.68c1,1.33,3.2,2.37,5,3.39,1.29.72,2.62,1.41,3.08,2.86.05.17-.67,1.14-.63,1.3a9.93,9.93,0,0,1,.06,2.18c-.13,2.53-1.33,4.47-1.45,7a19.69,19.69,0,0,1-.34,3,18.6,18.6,0,0,0-.05,3.58c0,1.26,0,2.51,0,3.77a7.21,7.21,0,0,0,.05,1.61c.14.51-7.75,5.35-10.93,7.21a5.28,5.28,0,0,1-.58.3,8.22,8.22,0,0,1-6-.2c-6.7-2-6.45-4.53-6.45-4.53s-.39-2.84,2.81-5a8.28,8.28,0,0,1,1.22-.68.1.1,0,0,0,0,0,8.19,8.19,0,0,1,5.08-.61,9.46,9.46,0,0,0,.25-3.18,36.65,36.65,0,0,0-.23-4.8,12.71,12.71,0,0,0-2.29-4.91c-1.51-1.91-3.18-4.33-4.22-5.7-1.13-1.17-1.47-4.7,3.73-9.13,5-4.25,8.87-3.7,9.71-2.13A22.38,22.38,0,0,0,425.18,401.68Z" style="fill:#37474f"></path><path d="M412.8,429.52a5.14,5.14,0,0,1,2.14-2.86,7.31,7.31,0,0,1,1.17.15C415.49,427.53,413.19,428.64,412.8,429.52Z" style="fill:#263238"></path><path d="M434.18,409.34c1.5.54.22,4.76-.63,8.75s-1.31,5.39-.76,8.67.86,4.76-.44,6-11.77,6.51-11.77,6.51a39.89,39.89,0,0,0,2.07-12.44c.1-7.32.47-12,3.75-15.45A8.11,8.11,0,0,1,434.18,409.34Z" style="fill:#3592FF"></path><path d="M434.18,409.34c1.5.54.22,4.76-.63,8.75s-1.31,5.39-.76,8.67.86,4.76-.44,6-11.77,6.51-11.77,6.51a39.89,39.89,0,0,0,2.07-12.44c.1-7.32.47-12,3.75-15.45A8.11,8.11,0,0,1,434.18,409.34Z" style="opacity:0.4"></path><path d="M406.94,433.13c.26,1.4,4.34,4,8.94,3.67s4.93-1.42,5.29-7.09.37-13.5,2.49-17,5.07-5.69,9.64-4.78c.53.23,2,1.58,1.57,3,0,0-.05-1.07-1.93-1.5-1.61-.37-3.49-.19-6,2.35-2.9,3-3.18,9.51-3.18,15.1s-.09,12.08-4.48,12.88-9.13-1-12.11-3.38A7,7,0,0,1,406.94,433.13Z" style="fill:#263238"></path></g><g id="freepik--Top--inject-5"><path d="M357.47,173c-1.3-1.71-1.14-4.29-.23-6.23s2.68-4,7.6-6.12c5.85-2.57,21.55-3.66,28.61,7,1,1.53-16.15,29.35-15.77,35.37-3.71-4.43-15.88-20-15.88-20-3-1.52-4.83-2.76-5.3-5.73A7.18,7.18,0,0,1,357.47,173Z" style="fill:#263238"></path><path d="M359.28,181.26s-4.63,6.58-4.2,7.17a21.78,21.78,0,0,0,3,2.26Z" style="fill:#f0997a"></path><path d="M365.29,169.09c-2.9,1.15-5.47,3.16-6.74,9.28-.34,1.6.78,3.89.07,6-3,9-.61,16.89,1.07,18.7,1.13,1.22,7.42,2.13,10.79,1.42,4.22-.89,13.49-4.39,18.2-10.59,5.53-7.31,7.37-17.48,2-22C383.14,165.64,368.39,167.86,365.29,169.09Z" style="fill:#ffbda7"></path><path d="M385.63,198.92l.72,11h0c2.46.84,1.94,4.32.42,6.43l.21,3.25-16.24,1.05L368.79,202Z" style="fill:#ffbda7"></path><path d="M360,203.32c1.42.91,4.62,1.72,9.06,1.39l-.22-2.29a24,24,0,0,1-4.27,1A15,15,0,0,1,360,203.32Z" style="fill:#f0997a"></path><path d="M360.92,172.12c-.41,4,2,5.42,3.76,6.32a8.61,8.61,0,0,0-1,4.68c.27,2,.94,3.77,2.89,4.57,1.2.48,1.6,0,2.09-1,.71-1.33,1.62-3.38,4.54-2.79,3.35.68,3.91,5.82,1.73,9a5,5,0,0,1-4,2.32A3.1,3.1,0,0,1,368.7,194s-.06,4.45,5.47,7.44c0,0,5.55,3.61,11.57,2.25a113.58,113.58,0,0,0,8.1-8.77c6.8-8.6,9.09-25-1.33-28.62-.5-.17-10-2.13-14.77-1.41C363.17,167.13,361,171.43,360.92,172.12Z" style="fill:#263238"></path><path d="M391.24,210c6.91.13,10.87,1.18,15.51,9.52,4.4,7.9,11.79,18.94,14.63,27,1,2.9,1.65,5.62-2.07,8.25-8.42,5.94-21.48,12.6-21.48,12.6l-2.33-12.64,9-6.36-4.21-7.44Z" style="fill:#ffbda7"></path><path d="M404.51,248.35a9.67,9.67,0,0,0,5.05,3.58c-2.35.81-5.32-1.27-6.28-2.72Z" style="fill:#f0997a"></path><path d="M389.93,209.73c3.05-.1,9-.31,12.86,3.49s12.53,19.69,12.53,19.69-1.7,3.4-7.39,6.35-8.58,2.12-8.58,2.12L391,226.11Z" style="fill:#3592FF"></path><path d="M389.93,209.73c3.05-.1,9-.31,12.86,3.49s12.53,19.69,12.53,19.69-1.7,3.4-7.39,6.35-8.58,2.12-8.58,2.12L391,226.11Z" style="opacity:0.2"></path><path d="M399.49,215.21c-2.75-5.37-10.26-5.44-9.51-5.48-1.67.09-3.63.22-3.63.22.95,2-.53,3.42-3.17,4.11-3.41.89-8.61,1.11-12.22-1.15l-1.11-.76s-7.4.93-9.46,1.64c-5.78,2-7.25,3.93-13.58,19.18-2.71,6.52-1.31,13.38,5.42,17.28.41,4.08-.4,9.42-.7,13.82s.35,4.14,1.84,5.05c8.24,5,29.57,7.37,44.46-1.77,2.44-2,2.9-2.51,2.87-11.22C400.66,246.16,405.93,227.8,399.49,215.21Z" style="fill:#263238"></path><path d="M322.63,235.37s-25.08-5-26.52-6c-1.21-.88-1.61-2.33-2.21-3.61a16.88,16.88,0,0,0-2.78-4c-.71-.8-1.57-1.49-2.24-2.32s-.87-1.75-1.47-2.53-1.41-.22-1.79.54a4.48,4.48,0,0,0,.09,3.41c.18.48.35,1,.54,1.45a8,8,0,0,1,.52,1.33,1.1,1.1,0,0,1-.06.72c-.27.45-1.11.15-1.49,0a20.18,20.18,0,0,1-6.75-4.48c-.83-.83-1.47-1.77-2.36-2.55a10.4,10.4,0,0,0-2.7-1.79,3.85,3.85,0,0,0-2.13-.39c-1.09.41.13,2.13.41,2.72a4,4,0,0,1,.5,2.09,3.31,3.31,0,0,0,.74,2.41,6.4,6.4,0,0,1,1.38,2.44c0,.31,0,.65,0,1a4.7,4.7,0,0,0,1.15,2.67,3.9,3.9,0,0,1,1,2.52c.22,2.12,2.44,3.68,4.09,4.7a28.24,28.24,0,0,0,6.11,2.69c1.14.37,2.25.84,3.39,1.18s2.09.51,3.09.89c2.39.91,20.86,8,28.22,10,3.63,1,4.62,1.91,9.73-.76,9.2-4.81,18.22-8.09,23.52-11.34,7.25-4.44,10.34-6.93,11.33-11.67,2.29-11-4.95-13-4.95-13-2.64.68-4,1.3-12.07,5.95C340.32,224.54,322.63,235.37,322.63,235.37Z" style="fill:#ffbda7"></path><path d="M361,213.61c-4.44.51-6.75,1.73-11.69,4.84S336,227,336,227a24.52,24.52,0,0,0,5.87,13.34c3.95,4.52,7.17,4.14,7.17,4.14S362.27,234.74,365,231,369.62,216,361,213.61Z" style="fill:#3592FF"></path><path d="M361,213.61c-4.44.51-6.75,1.73-11.69,4.84S336,227,336,227a24.52,24.52,0,0,0,5.87,13.34c3.95,4.52,7.17,4.14,7.17,4.14S362.27,234.74,365,231,369.62,216,361,213.61Z" style="opacity:0.2"></path></g></g></g></svg>