<?xml version="1.0" encoding="UTF-8"?>
<svg id="logo_mwm" width="174.64062pt" height="57.72266pt" version="1.1" viewBox="0 0 174.64062 57.72266" xmlns="http://www.w3.org/2000/svg">
 <g id="logo" transform="translate(-8.851563,-53.136719)" fill="#00519c" fill-rule="evenodd">
  <path id="rect1" d="m183.49219 56.269531h-174.64063v-3.132812h174.64063v3.132812"/>
  <path id="rect2" d="m183.49219 62.664063h-174.64063v-3.132813h174.64063v3.132813"/>
  <path id="rect3" d="m183.49219 69.058594h-174.64063v-3.132813h174.64063v3.132813"/>
  <path id="M1" d="m8.851563 72.496094h20.257812l6.445313 19.054687 6.34375-19.054687h19.683593v38.363286h-13.164062v-20.812505l-6.144531 20.812505h-13.789063l-6.144531-20.812505v20.812505h-13.488281v-38.363286"/>
  <path id="M2" d="m130.71484 72.496094h20.25782l6.44531 19.054687 6.34375-19.054687h19.67969v38.363286h-13.16407v-20.812505l-6.14062 20.812505h-13.79297l-6.14063-20.812505v20.812505h-13.48828v-38.363286"/>
  <path id="W" d="m63.964844 72.496094h15.417969l3.386718 17.550781 5.390625-17.550781h16.171874l5.51953 17.550781 3.63282-17.550781h15.42187l-7.52344 38.363286h-18.17968l-6.968755-22.066411-7.320312 22.066411h-17.929688l-7.019531-38.363286"/>
 </g>
</svg>
