<?xml version="1.0" encoding="utf-8"?>
<!-- Generator: Adobe Illustrator 19.2.1, SVG Export Plug-In . SVG Version: 6.00 Build 0)  -->
<svg version="1.1" id="layer" xmlns="http://www.w3.org/2000/svg" xmlns:xlink="http://www.w3.org/1999/xlink" x="0px" y="0px"
	 viewBox="0 0 652 652" style="enable-background:new 0 0 652 652;" xml:space="preserve">
<style type="text/css">
	.st0{fill:#C91734;}
</style>
<g>
	<path class="st0" d="M317.7,345.4l-6.1-48c-0.3-2.6-0.7-4.5-5.6-4.5h-25.5c-3.2,0-4.8,0.2-5.9,2.2l-28,50.9c-1.2,2-0.2,3.8,1.8,3.8
		h16.5c2.2,0,3.3-0.5,4.5-2.4c1.6-2.9,3.1-5.9,4.3-8.5c0.2-0.2,0.3-0.3,0.6-0.3h21.1c0.3,0,0.6,0.2,0.6,0.5l0.8,7.4
		c0.3,2.7,1.7,3.4,3.8,3.4h13.6C317.1,349.8,318.2,348.5,317.7,345.4 M293.9,325.9h-13.1c-0.2,0-0.4-0.2-0.3-0.4l11-21.5
		c0.1-0.3,0.5-0.5,0.7,0l2.3,21.4C294.6,325.8,294.4,325.9,293.9,325.9"/>
	<path class="st0" d="M551,345.4l-6.1-48c-0.3-2.6-0.7-4.5-5.6-4.5h-25.5c-3.2,0-4.8,0.2-5.9,2.2L479.9,346
		c-1.2,2.1-0.2,3.8,1.8,3.8h16.5c2.2-0.1,3.3-0.5,4.5-2.4c1.6-2.9,3.1-5.9,4.4-8.5c0.2-0.2,0.3-0.3,0.6-0.3h21.1
		c0.3,0,0.6,0.3,0.6,0.5l0.8,7.4c0.3,2.7,1.7,3.4,3.8,3.4h13.6C550.5,349.9,551.5,348.4,551,345.4 M527.3,325.9h-13.1
		c-0.2,0-0.4-0.2-0.3-0.4l11-21.5c0.1-0.3,0.6-0.5,0.7,0l2.3,21.4C527.9,325.7,527.7,325.9,527.3,325.9"/>
	<path class="st0" d="M454.8,346l4.4-24c0.3-1.3-0.3-1.3-0.8-0.7l-20,26.1c-1,1.3-2.6,2.4-3.8,2.4h-4.8c-1.3,0-2.4-0.9-2.8-2
		l-9.6-26.4c-0.4-1.1-0.7-0.7-0.9,0.2l-4.7,25.4c-0.3,1.6-1.3,2.8-2.9,2.8h-14.5c-2.1,0-3.1-1.1-2.7-3.2l9.8-49.7
		c0.6-3.2,2.3-4,4.7-4h15.9c2.9,0,4.9,0.6,5.7,2.7l8.4,22.8c0.5,1.1,0.5,1.1,1.3,0.1l18-23c1.5-2,2.8-2.7,5.5-2.7h20
		c3.5,0,3.9,1.8,3.5,4.3l-9.7,50.2c-0.3,1.6-1.5,2.6-3.3,2.6h-13.8C454.7,350,454.4,348,454.8,346"/>
	<path class="st0" d="M365.8,318l3.9-21.1c0.6-3.2,2.2-3.8,4.7-3.8h12.5c2.3,0,4,0.9,3.4,4.1l-9.6,48.6c-0.6,3.2-2.2,4.1-4.2,4.1
		h-10c-1.8,0-3.3-0.6-4.1-2l-13.5-23c-0.3-0.5-0.6-0.4-0.6,0l-3.7,20.4c-0.5,2.6-1.2,4.6-4.1,4.6H326c-2.4,0-3.2-1.3-2.7-3.6
		l9.3-49.4c0.6-3.3,2.4-3.9,4.1-3.9H347c2.6,0,3.8,1,5.4,3.8L365,318C365.2,318.4,365.7,318.6,365.8,318"/>
	<path class="st0" d="M611.1,292.9l-39.8,0.1c-4.5,0-5.6,0.8-6.1,3.7l-9.7,49.8c-0.4,2.3,0,3.3,2.7,3.4c1.4,0.1,13.5,0,14.8,0
		c2.2,0,3.3-1.1,3.7-2.8c1.3-5.5,2.9-14.1,3.2-16c0.2-0.9,0.2-1,1.8-1h11.1c1.8,0,2.6,0.9,2.2,3.4l-2.2,13.4
		c-0.3,1.8,0.4,3.1,2.5,3.1c2.8,0,12.7,0.1,14.5,0c2.8,0,3.9-0.6,4.5-4.3l2.2-12.5c0.7-3.9,0.8-9.4-5.5-11.4c-0.3-0.1-0.3-0.4,0-0.4
		c5.1-1.4,7.1-4.4,8.4-8.2c0.8-2.4,1.4-6.6,1.9-9.8C622.6,296.1,618.2,292.9,611.1,292.9 M600,307.7c-0.1,1.2-0.8,4.8-1.3,7.1
		c-0.6,2.6-1.6,3.3-5.4,3.3h-10.2c-0.7,0-0.8-0.2-0.7-0.7l2.3-12.1c0.1-0.2,0.2-0.3,0.5-0.3c2.7-0.1,11.6-0.1,12.5,0
		C599.6,305.1,600.1,305.9,600,307.7"/>
	<path class="st0" d="M225.9,312.2l14.6-17.9c0.8-1,1.2-1.6,2.8-1.6h19.8c2.8,0,2.3,1.8,1.6,2.7l-29.1,35c-0.2,0.3-0.4,1.1-0.5,1.4
		l-3.4,15.9c-0.4,1.8-1.8,2.4-3.7,2.4h-14.8c-3.1,0-3.3-1.7-2.9-3.7l2.8-14c0.1-0.5,0.1-0.8-0.1-1.2l-18.9-36.1
		c-0.5-1.2,0.3-2.3,1.9-2.3h16.6c1.6,0,2.9,0.6,3.5,1.8l8.6,17.7C225,313,225.5,312.8,225.9,312.2"/>
	<polygon class="st0" points="97.4,357.4 165.2,329.3 165.2,312.2 97.4,340.3 	"/>
	<polygon class="st0" points="93.4,315.4 21.6,285.6 21.6,302.7 93.4,332.4 165.2,302.7 165.2,285.6 	"/>
	<polygon class="st0" points="21.6,329.3 89.5,357.4 89.5,340.3 21.6,312.2 	"/>
</g>
</svg>
